solid carousel_v1
facet normal 0.0 0.0 -1.0
outer loop
vertex 7.52138784656547 -16.9941925951386 0.0
vertex 7.52138784656548 16.9941925951386 0.0
vertex 7.69030116872178 -16.3637994947761 0.0
endloop
endfacet
facet normal 0.0 0.0 -1.0
outer loop
vertex 7.52138784656548 16.9941925951386 0.0
vertex 7.52138784656547 -16.9941925951386 0.0
vertex 7.52138784656548 17.6468235562389 0.0
endloop
endfacet
facet normal 0.0 0.0 -1.0
outer loop
vertex 7.69030116872178 -16.3637994947761 0.0
vertex 7.52138784656548 16.9941925951386 0.0
vertex 7.69030116872179 16.363799494776 0.0
endloop
endfacet
facet normal 0.0 0.0 -1.0
outer loop
vertex 7.69030116872178 -16.3637994947761 0.0
vertex 7.69030116872179 16.363799494776 0.0
vertex 8.01661664927191 -15.798604503167 0.0
endloop
endfacet
facet normal 0.0 0.0 -1.0
outer loop
vertex 8.01661664927191 -15.798604503167 0.0
vertex 7.69030116872179 16.363799494776 0.0
vertex 8.01661664927192 15.798604503167 0.0
endloop
endfacet
facet normal 0.0 0.0 -1.0
outer loop
vertex 8.01661664927191 -15.798604503167 0.0
vertex 8.01661664927192 15.798604503167 0.0
vertex 8.47809642747819 -15.3371247249607 0.0
endloop
endfacet
facet normal 0.0 0.0 -1.0
outer loop
vertex 8.47809642747819 -15.3371247249607 0.0
vertex 8.01661664927192 15.798604503167 0.0
vertex 8.47809642747821 15.3371247249607 0.0
endloop
endfacet
facet normal 0.0 0.0 -1.0
outer loop
vertex 8.47809642747819 -15.3371247249607 0.0
vertex 8.47809642747821 15.3371247249607 0.0
vertex 9.04329141908727 -15.0108092444106 0.0
endloop
endfacet
facet normal 0.0 0.0 -1.0
outer loop
vertex 9.04329141908727 -15.0108092444106 0.0
vertex 8.47809642747821 15.3371247249607 0.0
vertex 9.04329141908728 15.0108092444106 0.0
endloop
endfacet
facet normal 0.0 0.0 -1.0
outer loop
vertex 9.04329141908727 -15.0108092444106 0.0
vertex 9.04329141908728 15.0108092444106 0.0
vertex 9.67368451944987 -14.8418959222543 0.0
endloop
endfacet
facet normal 0.0 0.0 -1.0
outer loop
vertex 9.67368451944987 -14.8418959222543 0.0
vertex 9.04329141908728 15.0108092444106 0.0
vertex 9.67368451944988 14.8418959222542 0.0
endloop
endfacet
facet normal 0.0 0.0 -1.0
outer loop
vertex 9.67368451944987 -14.8418959222543 0.0
vertex 9.67368451944988 14.8418959222542 0.0
vertex 10.3263154805501 -14.8418959222543 0.0
endloop
endfacet
facet normal 0.0 0.0 -1.0
outer loop
vertex 10.3263154805501 -14.8418959222543 0.0
vertex 9.67368451944988 14.8418959222542 0.0
vertex 10.3263154805501 14.8418959222542 0.0
endloop
endfacet
facet normal 0.0 0.0 -1.0
outer loop
vertex 10.3263154805501 -14.8418959222543 0.0
vertex 10.3263154805501 14.8418959222542 0.0
vertex 10.9567085809127 -15.0108092444106 0.0
endloop
endfacet
facet normal 0.0 0.0 -1.0
outer loop
vertex 10.9567085809127 -15.0108092444106 0.0
vertex 10.3263154805501 14.8418959222542 0.0
vertex 10.9567085809127 15.0108092444106 0.0
endloop
endfacet
facet normal 0.0 0.0 -1.0
outer loop
vertex 10.9567085809127 -15.0108092444106 0.0
vertex 10.9567085809127 15.0108092444106 0.0
vertex 11.5219035725218 -15.3371247249607 0.0
endloop
endfacet
facet normal 0.0 0.0 -1.0
outer loop
vertex 11.5219035725218 -15.3371247249607 0.0
vertex 10.9567085809127 15.0108092444106 0.0
vertex 11.5219035725218 15.3371247249607 0.0
endloop
endfacet
facet normal 0.0 0.0 -1.0
outer loop
vertex 11.5219035725218 -15.3371247249607 0.0
vertex 11.5219035725218 15.3371247249607 0.0
vertex 11.9833833507281 -15.798604503167 0.0
endloop
endfacet
facet normal 0.0 0.0 -1.0
outer loop
vertex 11.9833833507281 -15.798604503167 0.0
vertex 11.5219035725218 15.3371247249607 0.0
vertex 11.9833833507281 15.798604503167 0.0
endloop
endfacet
facet normal 0.0 0.0 -1.0
outer loop
vertex 11.9833833507281 -15.798604503167 0.0
vertex 11.9833833507281 15.798604503167 0.0
vertex 12.3096988312782 -16.3637994947761 0.0
endloop
endfacet
facet normal 0.0 0.0 -1.0
outer loop
vertex 12.3096988312782 -16.3637994947761 0.0
vertex 11.9833833507281 15.798604503167 0.0
vertex 12.3096988312782 16.363799494776 0.0
endloop
endfacet
facet normal 0.0 0.0 -1.0
outer loop
vertex 12.3096988312782 -16.3637994947761 0.0
vertex 12.3096988312782 16.363799494776 0.0
vertex 12.4786121534345 -16.9941925951386 0.0
endloop
endfacet
facet normal 0.0 0.0 -1.0
outer loop
vertex 12.4786121534345 -16.9941925951386 0.0
vertex 12.3096988312782 16.363799494776 0.0
vertex 12.4786121534345 16.9941925951386 0.0
endloop
endfacet
facet normal 0.0 0.0 -1.0
outer loop
vertex 12.4786121534345 -16.9941925951386 0.0
vertex 12.4786121534345 16.9941925951386 0.0
vertex 12.4786121534345 -17.6468235562389 0.0
endloop
endfacet
facet normal 0.0 0.0 -1.0
outer loop
vertex -2.5 1.53080849893419e-16 0.0
vertex 0.0 -35.0 0.0
vertex -3.75287615398655 -35.4940755188085 0.0
endloop
endfacet
facet normal 0.0 0.0 -1.0
outer loop
vertex 0.0 -35.0 0.0
vertex -2.5 1.53080849893419e-16 0.0
vertex -2.41481456572267 -0.647047612756302 0.0
endloop
endfacet
facet normal 0.0 0.0 -1.0
outer loop
vertex 0.0 -35.0 0.0
vertex -2.41481456572267 -0.647047612756302 0.0
vertex -2.1650635094611 -1.25 0.0
endloop
endfacet
facet normal 0.0 0.0 -1.0
outer loop
vertex 0.0 -35.0 0.0
vertex -2.1650635094611 -1.25 0.0
vertex -1.76776695296637 -1.76776695296637 0.0
endloop
endfacet
facet normal 0.0 0.0 -1.0
outer loop
vertex 0.0 -35.0 0.0
vertex -1.76776695296637 -1.76776695296637 0.0
vertex -1.25 -2.1650635094611 0.0
endloop
endfacet
facet normal 0.0 0.0 -1.0
outer loop
vertex 0.0 -35.0 0.0
vertex -1.25 -2.1650635094611 0.0
vertex -0.647047612756303 -2.41481456572267 0.0
endloop
endfacet
facet normal 0.0 0.0 -1.0
outer loop
vertex 0.0 -35.0 0.0
vertex -0.647047612756303 -2.41481456572267 0.0
vertex -3.06161699786838e-16 -2.5 0.0
endloop
endfacet
facet normal 0.0 0.0 -1.0
outer loop
vertex 0.0 -35.0 0.0
vertex -3.06161699786838e-16 -2.5 0.0
vertex 0.647047612756301 -2.41481456572267 0.0
endloop
endfacet
facet normal 0.0 0.0 -1.0
outer loop
vertex 0.0 -35.0 0.0
vertex 0.647047612756301 -2.41481456572267 0.0
vertex 3.75287615398656 -35.4940755188085 0.0
endloop
endfacet
facet normal 0.0 0.0 -1.0
outer loop
vertex 3.75287615398656 -35.4940755188085 0.0
vertex 0.647047612756301 -2.41481456572267 0.0
vertex 1.25 -2.1650635094611 0.0
endloop
endfacet
facet normal 0.0 0.0 -1.0
outer loop
vertex 3.75287615398656 -35.4940755188085 0.0
vertex 1.25 -2.1650635094611 0.0
vertex 1.76776695296637 -1.76776695296637 0.0
endloop
endfacet
facet normal 0.0 0.0 -1.0
outer loop
vertex 3.75287615398656 -35.4940755188085 0.0
vertex 1.76776695296637 -1.76776695296637 0.0
vertex 2.1650635094611 -1.25 0.0
endloop
endfacet
facet normal 0.0 0.0 -1.0
outer loop
vertex 3.75287615398656 -35.4940755188085 0.0
vertex 2.1650635094611 -1.25 0.0
vertex 2.41481456572267 -0.647047612756304 0.0
endloop
endfacet
facet normal 0.0 0.0 -1.0
outer loop
vertex 3.75287615398656 -35.4940755188085 0.0
vertex 2.41481456572267 -0.647047612756304 0.0
vertex 2.5 -4.59242549680257e-16 0.0
endloop
endfacet
facet normal 0.0 0.0 -1.0
outer loop
vertex 3.75287615398656 -35.4940755188085 0.0
vertex 2.5 -4.59242549680257e-16 0.0
vertex 3.75287615398653 35.4940755188085 0.0
endloop
endfacet
facet normal 0.0 0.0 -1.0
outer loop
vertex 3.75287615398656 -35.4940755188085 0.0
vertex 3.75287615398653 35.4940755188085 0.0
vertex 7.24999999999998 36.9426316451256 0.0
endloop
endfacet
facet normal 0.0 0.0 -1.0
outer loop
vertex 3.75287615398656 -35.4940755188085 0.0
vertex 7.24999999999998 36.9426316451256 0.0
vertex 7.25000000000001 -36.9426316451256 0.0
endloop
endfacet
facet normal 0.0 0.0 -1.0
outer loop
vertex 7.25000000000001 -36.9426316451256 0.0
vertex 7.24999999999998 36.9426316451256 0.0
vertex 7.52138784656548 17.6468235562389 0.0
endloop
endfacet
facet normal 0.0 0.0 -1.0
outer loop
vertex 7.52138784656548 17.6468235562389 0.0
vertex 7.24999999999998 36.9426316451256 0.0
vertex 10.2530483272049 39.2469516727951 0.0
endloop
endfacet
facet normal 0.0 0.0 -1.0
outer loop
vertex 7.25000000000001 -36.9426316451256 0.0
vertex 7.52138784656548 17.6468235562389 0.0
vertex 7.52138784656547 -17.6468235562389 0.0
endloop
endfacet
facet normal 0.0 0.0 -1.0
outer loop
vertex 7.52138784656547 -17.6468235562389 0.0
vertex 7.52138784656548 17.6468235562389 0.0
vertex 7.52138784656547 -16.9941925951386 0.0
endloop
endfacet
facet normal 0.0 0.0 -1.0
outer loop
vertex 7.52138784656548 17.6468235562389 0.0
vertex 10.2530483272049 39.2469516727951 0.0
vertex 7.69030116872179 18.2772166566015 0.0
endloop
endfacet
facet normal 0.0 0.0 -1.0
outer loop
vertex 7.69030116872179 18.2772166566015 0.0
vertex 10.2530483272049 39.2469516727951 0.0
vertex 8.01661664927192 18.8424116482106 0.0
endloop
endfacet
facet normal 0.0 0.0 -1.0
outer loop
vertex 8.01661664927192 18.8424116482106 0.0
vertex 10.2530483272049 39.2469516727951 0.0
vertex 8.47809642747821 19.3038914264169 0.0
endloop
endfacet
facet normal 0.0 0.0 -1.0
outer loop
vertex 8.47809642747821 19.3038914264169 0.0
vertex 10.2530483272049 39.2469516727951 0.0
vertex 9.04329141908728 19.630206906967 0.0
endloop
endfacet
facet normal 0.0 0.0 -1.0
outer loop
vertex 9.04329141908728 19.630206906967 0.0
vertex 10.2530483272049 39.2469516727951 0.0
vertex 9.67368451944988 19.7991202291233 0.0
endloop
endfacet
facet normal 0.0 0.0 -1.0
outer loop
vertex 9.67368451944988 19.7991202291233 0.0
vertex 10.2530483272049 39.2469516727951 0.0
vertex 10.3263154805501 19.7991202291233 0.0
endloop
endfacet
facet normal 0.0 0.0 -1.0
outer loop
vertex 10.3263154805501 19.7991202291233 0.0
vertex 10.2530483272049 39.2469516727951 0.0
vertex 12.5573683548743 42.25 0.0
endloop
endfacet
facet normal 0.0 0.0 -1.0
outer loop
vertex 10.3263154805501 19.7991202291233 0.0
vertex 12.5573683548743 42.25 0.0
vertex 10.9567085809127 19.630206906967 0.0
endloop
endfacet
facet normal 0.0 0.0 -1.0
outer loop
vertex 10.9567085809127 19.630206906967 0.0
vertex 12.5573683548743 42.25 0.0
vertex 11.5219035725218 19.3038914264169 0.0
endloop
endfacet
facet normal 0.0 0.0 -1.0
outer loop
vertex 11.5219035725218 19.3038914264169 0.0
vertex 12.5573683548743 42.25 0.0
vertex 11.9833833507281 18.8424116482106 0.0
endloop
endfacet
facet normal 0.0 0.0 -1.0
outer loop
vertex 11.9833833507281 18.8424116482106 0.0
vertex 12.5573683548743 42.25 0.0
vertex 12.3096988312782 18.2772166566015 0.0
endloop
endfacet
facet normal 0.0 0.0 -1.0
outer loop
vertex 12.3096988312782 18.2772166566015 0.0
vertex 12.5573683548743 42.25 0.0
vertex 12.4786121534345 17.6468235562389 0.0
endloop
endfacet
facet normal 0.0 0.0 -1.0
outer loop
vertex 12.4786121534345 17.6468235562389 0.0
vertex 12.5573683548743 42.25 0.0
vertex 12.4786121534345 16.9941925951386 0.0
endloop
endfacet
facet normal 0.0 0.0 -1.0
outer loop
vertex -67.6148078402348 -18.1173331571764 0.0
vertex -63.8295506270159 -2.21674960872618 0.0
vertex -60.6217782649107 -35.0 0.0
endloop
endfacet
facet normal 0.0 0.0 -1.0
outer loop
vertex -63.8295506270159 -2.21674960872618 0.0
vertex -67.6148078402348 -18.1173331571764 0.0
vertex -63.9150200467133 1.56754491254769 0.0
endloop
endfacet
facet normal 0.0 0.0 -1.0
outer loop
vertex -60.6217782649107 -35.0 0.0
vertex -63.8295506270159 -2.21674960872618 0.0
vertex -62.7675460127895 -5.84997630751729 0.0
endloop
endfacet
facet normal 0.0 0.0 -1.0
outer loop
vertex -60.6217782649107 -35.0 0.0
vertex -62.7675460127895 -5.84997630751729 0.0
vertex -60.801380063448 -9.08453678849405 0.0
endloop
endfacet
facet normal 0.0 0.0 -1.0
outer loop
vertex -60.6217782649107 -35.0 0.0
vertex -60.801380063448 -9.08453678849405 0.0
vertex -58.065043739196 -11.7000011002418 0.0
endloop
endfacet
facet normal 0.0 0.0 -1.0
outer loop
vertex -60.6217782649107 -35.0 0.0
vertex -58.065043739196 -11.7000011002418 0.0
vertex -49.4974746830583 -49.4974746830583 0.0
endloop
endfacet
facet normal 0.0 0.0 -1.0
outer loop
vertex -49.4974746830583 -49.4974746830583 0.0
vertex -58.065043739196 -11.7000011002418 0.0
vertex -54.7450138385219 -13.5181296721741 0.0
endloop
endfacet
facet normal 0.0 0.0 -1.0
outer loop
vertex -49.4974746830583 -49.4974746830583 0.0
vertex -54.7450138385219 -13.5181296721741 0.0
vertex -51.0675449125477 -14.4150200467133 0.0
endloop
endfacet
facet normal 0.0 0.0 -1.0
outer loop
vertex -49.4974746830583 -49.4974746830583 0.0
vertex -51.0675449125477 -14.4150200467133 0.0
vertex -49.501701928934 -34.9525063912483 0.0
endloop
endfacet
facet normal 0.0 0.0 -1.0
outer loop
vertex -49.4974746830583 -49.4974746830583 0.0
vertex -49.501701928934 -34.9525063912483 0.0
vertex -49.0203836790322 -38.7070400224412 0.0
endloop
endfacet
facet normal 0.0 0.0 -1.0
outer loop
vertex -49.4974746830583 -49.4974746830583 0.0
vertex -49.0203836790322 -38.7070400224412 0.0
vertex -47.5837211415572 -42.2090666926512 0.0
endloop
endfacet
facet normal 0.0 0.0 -1.0
outer loop
vertex -49.4974746830583 -49.4974746830583 0.0
vertex -47.5837211415572 -42.2090666926512 0.0
vertex -35.0 -60.6217782649107 0.0
endloop
endfacet
facet normal 0.0 0.0 -1.0
outer loop
vertex -35.0 -60.6217782649107 0.0
vertex -47.5837211415572 -42.2090666926512 0.0
vertex -45.2896204942407 -45.2199290716764 0.0
endloop
endfacet
facet normal 0.0 0.0 -1.0
outer loop
vertex -35.0 -60.6217782649107 0.0
vertex -45.2896204942407 -45.2199290716764 0.0
vertex -42.2944209050169 -47.5344418640714 0.0
endloop
endfacet
facet normal 0.0 0.0 -1.0
outer loop
vertex -35.0 -60.6217782649107 0.0
vertex -42.2944209050169 -47.5344418640714 0.0
vertex -38.80224027609 -48.9948748479478 0.0
endloop
endfacet
facet normal 0.0 0.0 -1.0
outer loop
vertex -35.0 -60.6217782649107 0.0
vertex -38.80224027609 -48.9948748479478 0.0
vertex -35.0510649462199 -49.501701928934 0.0
endloop
endfacet
facet normal 0.0 0.0 -1.0
outer loop
vertex -35.0 -60.6217782649107 0.0
vertex -35.0510649462199 -49.501701928934 0.0
vertex -31.296531315027 -49.0203836790322 0.0
endloop
endfacet
facet normal 0.0 0.0 -1.0
outer loop
vertex -35.0 -60.6217782649107 0.0
vertex -31.296531315027 -49.0203836790322 0.0
vertex -18.1173331571765 -67.6148078402348 0.0
endloop
endfacet
facet normal 0.0 0.0 -1.0
outer loop
vertex -18.1173331571765 -67.6148078402348 0.0
vertex -31.296531315027 -49.0203836790322 0.0
vertex -27.794504644817 -47.5837211415572 0.0
endloop
endfacet
facet normal 0.0 0.0 -1.0
outer loop
vertex -18.1173331571765 -67.6148078402348 0.0
vertex -27.794504644817 -47.5837211415572 0.0
vertex -24.7836422657918 -45.2896204942408 0.0
endloop
endfacet
facet normal 0.0 0.0 -1.0
outer loop
vertex -18.1173331571765 -67.6148078402348 0.0
vertex -24.7836422657918 -45.2896204942408 0.0
vertex -23.3580813065374 -43.4448090878826 0.0
endloop
endfacet
facet normal 0.0 0.0 -1.0
outer loop
vertex -18.1173331571765 -67.6148078402348 0.0
vertex -23.3580813065374 -43.4448090878826 0.0
vertex -22.4691294733968 -42.2944209050169 0.0
endloop
endfacet
facet normal 0.0 0.0 -1.0
outer loop
vertex -18.1173331571765 -67.6148078402348 0.0
vertex -22.4691294733968 -42.2944209050169 0.0
vertex -21.0086964895204 -38.80224027609 0.0
endloop
endfacet
facet normal 0.0 0.0 -1.0
outer loop
vertex -18.1173331571765 -67.6148078402348 0.0
vertex -21.0086964895204 -38.80224027609 0.0
vertex -20.5018694085342 -35.0510649462199 0.0
endloop
endfacet
facet normal 0.0 0.0 -1.0
outer loop
vertex -18.1173331571765 -67.6148078402348 0.0
vertex -20.5018694085342 -35.0510649462199 0.0
vertex -20.0 -2.5 0.0
endloop
endfacet
facet normal 0.0 0.0 -1.0
outer loop
vertex -18.1173331571765 -67.6148078402348 0.0
vertex -20.0 -2.5 0.0
vertex -19.6764761936218 -2.45740728286134 0.0
endloop
endfacet
facet normal 0.0 0.0 -1.0
outer loop
vertex -18.1173331571765 -67.6148078402348 0.0
vertex -19.6764761936218 -2.45740728286134 0.0
vertex -19.3529523872437 -2.41481456572267 0.0
endloop
endfacet
facet normal 0.0 0.0 -1.0
outer loop
vertex -18.1173331571765 -67.6148078402348 0.0
vertex -19.3529523872437 -2.41481456572267 0.0
vertex -18.75 -2.1650635094611 0.0
endloop
endfacet
facet normal 0.0 0.0 -1.0
outer loop
vertex -18.1173331571765 -67.6148078402348 0.0
vertex -18.75 -2.1650635094611 0.0
vertex -18.2322330470336 -1.76776695296637 0.0
endloop
endfacet
facet normal 0.0 0.0 -1.0
outer loop
vertex -18.1173331571765 -67.6148078402348 0.0
vertex -18.2322330470336 -1.76776695296637 0.0
vertex -17.8349364905389 -1.25 0.0
endloop
endfacet
facet normal 0.0 0.0 -1.0
outer loop
vertex -18.1173331571765 -67.6148078402348 0.0
vertex -17.8349364905389 -1.25 0.0
vertex -14.5 -49.5 0.0
endloop
endfacet
facet normal 0.0 0.0 -1.0
outer loop
vertex -18.1173331571765 -67.6148078402348 0.0
vertex -14.5 -49.5 0.0
vertex -14.0059244811915 -53.2528761539865 0.0
endloop
endfacet
facet normal 0.0 0.0 -1.0
outer loop
vertex -18.1173331571765 -67.6148078402348 0.0
vertex -14.0059244811915 -53.2528761539865 0.0
vertex -12.5573683548744 -56.75 0.0
endloop
endfacet
facet normal 0.0 0.0 -1.0
outer loop
vertex -18.1173331571765 -67.6148078402348 0.0
vertex -12.5573683548744 -56.75 0.0
vertex -10.2530483272049 -59.7530483272049 0.0
endloop
endfacet
facet normal 0.0 0.0 -1.0
outer loop
vertex -18.1173331571765 -67.6148078402348 0.0
vertex -10.2530483272049 -59.7530483272049 0.0
vertex -8.57252759403147e-15 -70.0 0.0
endloop
endfacet
facet normal 0.0 0.0 -1.0
outer loop
vertex -14.5 -49.5 0.0
vertex -17.8349364905389 -1.25 0.0
vertex -17.5851854342773 -0.647047612756304 0.0
endloop
endfacet
facet normal 0.0 0.0 -1.0
outer loop
vertex -14.5 -49.5 0.0
vertex -17.5851854342773 -0.647047612756304 0.0
vertex -17.5 0.0 0.0
endloop
endfacet
facet normal 0.0 0.0 -1.0
outer loop
vertex -14.5 -49.5 0.0
vertex -17.5 0.0 0.0
vertex -14.5 49.5 0.0
endloop
endfacet
facet normal 0.0 0.0 -1.0
outer loop
vertex -8.57252759403147e-15 -70.0 0.0
vertex -10.2530483272049 -59.7530483272049 0.0
vertex -7.25 -62.0573683548744 0.0
endloop
endfacet
facet normal 0.0 0.0 -1.0
outer loop
vertex -8.57252759403147e-15 -70.0 0.0
vertex -7.25 -62.0573683548744 0.0
vertex -3.75287615398655 -63.5059244811915 0.0
endloop
endfacet
facet normal 0.0 0.0 -1.0
outer loop
vertex -8.57252759403147e-15 -70.0 0.0
vertex -3.75287615398655 -63.5059244811915 0.0
vertex -1.77573785876366e-15 -64.0 0.0
endloop
endfacet
facet normal 0.0 0.0 -1.0
outer loop
vertex -8.57252759403147e-15 -70.0 0.0
vertex -1.77573785876366e-15 -64.0 0.0
vertex 18.1173331571764 -67.6148078402348 0.0
endloop
endfacet
facet normal 0.0 0.0 -1.0
outer loop
vertex 18.1173331571764 -67.6148078402348 0.0
vertex -1.77573785876366e-15 -64.0 0.0
vertex 3.75287615398654 -63.5059244811915 0.0
endloop
endfacet
facet normal 0.0 0.0 -1.0
outer loop
vertex 18.1173331571764 -67.6148078402348 0.0
vertex 3.75287615398654 -63.5059244811915 0.0
vertex 7.25 -62.0573683548744 0.0
endloop
endfacet
facet normal 0.0 0.0 -1.0
outer loop
vertex 18.1173331571764 -67.6148078402348 0.0
vertex 7.25 -62.0573683548744 0.0
vertex 10.2530483272049 -59.7530483272049 0.0
endloop
endfacet
facet normal 0.0 0.0 -1.0
outer loop
vertex 18.1173331571764 -67.6148078402348 0.0
vertex 10.2530483272049 -59.7530483272049 0.0
vertex 12.5573683548744 -56.75 0.0
endloop
endfacet
facet normal 0.0 0.0 -1.0
outer loop
vertex 18.1173331571764 -67.6148078402348 0.0
vertex 12.5573683548744 -56.75 0.0
vertex 14.0059244811915 -53.2528761539866 0.0
endloop
endfacet
facet normal 0.0 0.0 -1.0
outer loop
vertex 18.1173331571764 -67.6148078402348 0.0
vertex 14.0059244811915 -53.2528761539866 0.0
vertex 14.5 -49.5 0.0
endloop
endfacet
facet normal 0.0 0.0 -1.0
outer loop
vertex 7.52138784656547 -17.6468235562389 0.0
vertex 10.2530483272049 -39.2469516727951 0.0
vertex 7.25000000000001 -36.9426316451256 0.0
endloop
endfacet
facet normal 0.0 0.0 -1.0
outer loop
vertex 10.2530483272049 -39.2469516727951 0.0
vertex 7.52138784656547 -17.6468235562389 0.0
vertex 7.69030116872178 -18.2772166566015 0.0
endloop
endfacet
facet normal 0.0 0.0 -1.0
outer loop
vertex 10.2530483272049 -39.2469516727951 0.0
vertex 7.69030116872178 -18.2772166566015 0.0
vertex 8.01661664927191 -18.8424116482106 0.0
endloop
endfacet
facet normal 0.0 0.0 -1.0
outer loop
vertex 10.2530483272049 -39.2469516727951 0.0
vertex 8.01661664927191 -18.8424116482106 0.0
vertex 8.47809642747819 -19.3038914264169 0.0
endloop
endfacet
facet normal 0.0 0.0 -1.0
outer loop
vertex 10.2530483272049 -39.2469516727951 0.0
vertex 8.47809642747819 -19.3038914264169 0.0
vertex 9.04329141908727 -19.630206906967 0.0
endloop
endfacet
facet normal 0.0 0.0 -1.0
outer loop
vertex 10.2530483272049 -39.2469516727951 0.0
vertex 9.04329141908727 -19.630206906967 0.0
vertex 9.67368451944986 -19.7991202291233 0.0
endloop
endfacet
facet normal 0.0 0.0 -1.0
outer loop
vertex 10.2530483272049 -39.2469516727951 0.0
vertex 9.67368451944986 -19.7991202291233 0.0
vertex 10.3263154805501 -19.7991202291233 0.0
endloop
endfacet
facet normal 0.0 0.0 -1.0
outer loop
vertex 10.2530483272049 -39.2469516727951 0.0
vertex 10.3263154805501 -19.7991202291233 0.0
vertex 12.5573683548744 -42.25 0.0
endloop
endfacet
facet normal 0.0 0.0 -1.0
outer loop
vertex 12.5573683548744 -42.25 0.0
vertex 10.3263154805501 -19.7991202291233 0.0
vertex 10.9567085809127 -19.630206906967 0.0
endloop
endfacet
facet normal 0.0 0.0 -1.0
outer loop
vertex 12.5573683548744 -42.25 0.0
vertex 10.9567085809127 -19.630206906967 0.0
vertex 11.5219035725218 -19.3038914264169 0.0
endloop
endfacet
facet normal 0.0 0.0 -1.0
outer loop
vertex 12.5573683548744 -42.25 0.0
vertex 11.5219035725218 -19.3038914264169 0.0
vertex 11.9833833507281 -18.8424116482106 0.0
endloop
endfacet
facet normal 0.0 0.0 -1.0
outer loop
vertex 12.5573683548744 -42.25 0.0
vertex 11.9833833507281 -18.8424116482106 0.0
vertex 12.3096988312782 -18.2772166566015 0.0
endloop
endfacet
facet normal 0.0 0.0 -1.0
outer loop
vertex 12.5573683548744 -42.25 0.0
vertex 12.3096988312782 -18.2772166566015 0.0
vertex 12.4786121534345 -17.6468235562389 0.0
endloop
endfacet
facet normal 0.0 0.0 -1.0
outer loop
vertex 12.5573683548744 -42.25 0.0
vertex 12.4786121534345 -17.6468235562389 0.0
vertex 12.4786121534345 16.9941925951386 0.0
endloop
endfacet
facet normal 0.0 0.0 -1.0
outer loop
vertex 12.5573683548744 -42.25 0.0
vertex 12.4786121534345 16.9941925951386 0.0
vertex 12.5573683548743 42.25 0.0
endloop
endfacet
facet normal 0.0 0.0 -1.0
outer loop
vertex 12.5573683548744 -42.25 0.0
vertex 12.5573683548743 42.25 0.0
vertex 14.0059244811915 45.7471238460134 0.0
endloop
endfacet
facet normal 0.0 0.0 -1.0
outer loop
vertex 12.5573683548744 -42.25 0.0
vertex 14.0059244811915 45.7471238460134 0.0
vertex 14.0059244811915 -45.7471238460135 0.0
endloop
endfacet
facet normal 0.0 0.0 -1.0
outer loop
vertex 14.0059244811915 -45.7471238460135 0.0
vertex 14.0059244811915 45.7471238460134 0.0
vertex 14.2021144659842 47.2373347298781 0.0
endloop
endfacet
facet normal 0.0 0.0 -1.0
outer loop
vertex 14.0059244811915 -45.7471238460135 0.0
vertex 14.2021144659842 47.2373347298781 0.0
vertex 14.2021144659842 -47.237334729878 0.0
endloop
endfacet
facet normal 0.0 0.0 -1.0
outer loop
vertex 14.2021144659842 -47.237334729878 0.0
vertex 14.2021144659842 47.2373347298781 0.0
vertex 14.5 49.5 0.0
endloop
endfacet
facet normal 0.0 0.0 -1.0
outer loop
vertex 14.2021144659842 -47.237334729878 0.0
vertex 14.5 49.5 0.0
vertex 14.5 -49.5 0.0
endloop
endfacet
facet normal 0.0 0.0 -1.0
outer loop
vertex -14.2021144659842 47.237334729878 0.0
vertex -14.5 -49.5 0.0
vertex -14.5 49.5 0.0
endloop
endfacet
facet normal 0.0 0.0 -1.0
outer loop
vertex -14.5 -49.5 0.0
vertex -14.2021144659842 47.237334729878 0.0
vertex -14.2021144659842 -47.237334729878 0.0
endloop
endfacet
facet normal 0.0 0.0 -1.0
outer loop
vertex -14.2021144659842 -47.237334729878 0.0
vertex -14.2021144659842 47.237334729878 0.0
vertex -14.0059244811915 45.7471238460135 0.0
endloop
endfacet
facet normal 0.0 0.0 -1.0
outer loop
vertex -14.2021144659842 -47.237334729878 0.0
vertex -14.0059244811915 45.7471238460135 0.0
vertex -14.0059244811915 -45.7471238460134 0.0
endloop
endfacet
facet normal 0.0 0.0 -1.0
outer loop
vertex -14.0059244811915 -45.7471238460134 0.0
vertex -14.0059244811915 45.7471238460135 0.0
vertex -12.5573683548744 42.25 0.0
endloop
endfacet
facet normal 0.0 0.0 -1.0
outer loop
vertex -14.0059244811915 -45.7471238460134 0.0
vertex -12.5573683548744 42.25 0.0
vertex -12.5573683548744 -42.25 0.0
endloop
endfacet
facet normal 0.0 0.0 -1.0
outer loop
vertex -12.5573683548744 -42.25 0.0
vertex -12.5573683548744 42.25 0.0
vertex -10.253048327205 39.2469516727951 0.0
endloop
endfacet
facet normal 0.0 0.0 -1.0
outer loop
vertex -12.5573683548744 -42.25 0.0
vertex -10.253048327205 39.2469516727951 0.0
vertex -10.2530483272049 -39.2469516727951 0.0
endloop
endfacet
facet normal 0.0 0.0 -1.0
outer loop
vertex -10.2530483272049 -39.2469516727951 0.0
vertex -10.253048327205 39.2469516727951 0.0
vertex -7.25000000000002 36.9426316451256 0.0
endloop
endfacet
facet normal 0.0 0.0 -1.0
outer loop
vertex -10.2530483272049 -39.2469516727951 0.0
vertex -7.25000000000002 36.9426316451256 0.0
vertex -7.25 -36.9426316451256 0.0
endloop
endfacet
facet normal 0.0 0.0 -1.0
outer loop
vertex -7.25 -36.9426316451256 0.0
vertex -7.25000000000002 36.9426316451256 0.0
vertex -3.75287615398657 35.4940755188085 0.0
endloop
endfacet
facet normal 0.0 0.0 -1.0
outer loop
vertex -7.25 -36.9426316451256 0.0
vertex -3.75287615398657 35.4940755188085 0.0
vertex -3.75287615398655 -35.4940755188085 0.0
endloop
endfacet
facet normal 0.0 0.0 -1.0
outer loop
vertex -3.75287615398655 -35.4940755188085 0.0
vertex -3.75287615398657 35.4940755188085 0.0
vertex -2.5 1.53080849893419e-16 0.0
endloop
endfacet
facet normal 0.0 0.0 -1.0
outer loop
vertex -2.5 1.53080849893419e-16 0.0
vertex -3.75287615398657 35.4940755188085 0.0
vertex -1.76961520905624e-14 35.0 0.0
endloop
endfacet
facet normal 0.0 0.0 -1.0
outer loop
vertex -2.5 1.53080849893419e-16 0.0
vertex -1.76961520905624e-14 35.0 0.0
vertex -2.41481456572267 0.647047612756302 0.0
endloop
endfacet
facet normal 0.0 0.0 -1.0
outer loop
vertex -2.41481456572267 0.647047612756302 0.0
vertex -1.76961520905624e-14 35.0 0.0
vertex -2.1650635094611 1.25 0.0
endloop
endfacet
facet normal 0.0 0.0 -1.0
outer loop
vertex -2.1650635094611 1.25 0.0
vertex -1.76961520905624e-14 35.0 0.0
vertex -1.76776695296637 1.76776695296637 0.0
endloop
endfacet
facet normal 0.0 0.0 -1.0
outer loop
vertex -1.76776695296637 1.76776695296637 0.0
vertex -1.76961520905624e-14 35.0 0.0
vertex -1.25 2.1650635094611 0.0
endloop
endfacet
facet normal 0.0 0.0 -1.0
outer loop
vertex -1.25 2.1650635094611 0.0
vertex -1.76961520905624e-14 35.0 0.0
vertex -0.647047612756302 2.41481456572267 0.0
endloop
endfacet
facet normal 0.0 0.0 -1.0
outer loop
vertex -0.647047612756302 2.41481456572267 0.0
vertex -1.76961520905624e-14 35.0 0.0
vertex 0.0 2.5 0.0
endloop
endfacet
facet normal 0.0 0.0 -1.0
outer loop
vertex 0.0 2.5 0.0
vertex -1.76961520905624e-14 35.0 0.0
vertex 3.75287615398653 35.4940755188085 0.0
endloop
endfacet
facet normal 0.0 0.0 -1.0
outer loop
vertex 0.0 2.5 0.0
vertex 3.75287615398653 35.4940755188085 0.0
vertex 0.647047612756304 2.41481456572267 0.0
endloop
endfacet
facet normal 0.0 0.0 -1.0
outer loop
vertex 0.647047612756304 2.41481456572267 0.0
vertex 3.75287615398653 35.4940755188085 0.0
vertex 1.25 2.1650635094611 0.0
endloop
endfacet
facet normal 0.0 0.0 -1.0
outer loop
vertex 1.25 2.1650635094611 0.0
vertex 3.75287615398653 35.4940755188085 0.0
vertex 1.76776695296637 1.76776695296637 0.0
endloop
endfacet
facet normal 0.0 0.0 -1.0
outer loop
vertex 1.76776695296637 1.76776695296637 0.0
vertex 3.75287615398653 35.4940755188085 0.0
vertex 2.1650635094611 1.25 0.0
endloop
endfacet
facet normal 0.0 0.0 -1.0
outer loop
vertex 2.1650635094611 1.25 0.0
vertex 3.75287615398653 35.4940755188085 0.0
vertex 2.41481456572267 0.647047612756301 0.0
endloop
endfacet
facet normal 0.0 0.0 -1.0
outer loop
vertex 2.41481456572267 0.647047612756301 0.0
vertex 3.75287615398653 35.4940755188085 0.0
vertex 2.5 -4.59242549680257e-16 0.0
endloop
endfacet
facet normal 0.0 0.0 -1.0
outer loop
vertex 18.1173331571765 67.6148078402347 0.0
vertex 20.9958611875426 38.7546618227206 0.0
vertex 20.5017856687341 35.0017856687341 0.0
endloop
endfacet
facet normal 0.0 0.0 -1.0
outer loop
vertex 20.9958611875426 38.7546618227206 0.0
vertex 18.1173331571765 67.6148078402347 0.0
vertex 22.4444173138597 42.2517856687341 0.0
endloop
endfacet
facet normal 0.0 0.0 -1.0
outer loop
vertex 22.4444173138597 42.2517856687341 0.0
vertex 18.1173331571765 67.6148078402347 0.0
vertex 35.0 60.6217782649107 0.0
endloop
endfacet
facet normal 0.0 0.0 -1.0
outer loop
vertex 22.4444173138597 42.2517856687341 0.0
vertex 35.0 60.6217782649107 0.0
vertex 23.3594282665906 43.4442511587606 0.0
endloop
endfacet
facet normal 0.0 0.0 -1.0
outer loop
vertex 23.3594282665906 43.4442511587606 0.0
vertex 35.0 60.6217782649107 0.0
vertex 24.7487373415292 45.254833995939 0.0
endloop
endfacet
facet normal 0.0 0.0 -1.0
outer loop
vertex 24.7487373415292 45.254833995939 0.0
vertex 35.0 60.6217782649107 0.0
vertex 27.7517856687341 47.5591540236085 0.0
endloop
endfacet
facet normal 0.0 0.0 -1.0
outer loop
vertex 27.7517856687341 47.5591540236085 0.0
vertex 35.0 60.6217782649107 0.0
vertex 31.2489095147476 49.0077101499256 0.0
endloop
endfacet
facet normal 0.0 0.0 -1.0
outer loop
vertex 31.2489095147476 49.0077101499256 0.0
vertex 35.0 60.6217782649107 0.0
vertex 35.0017856687341 49.5017856687341 0.0
endloop
endfacet
facet normal 0.0 0.0 -1.0
outer loop
vertex 35.0017856687341 49.5017856687341 0.0
vertex 35.0 60.6217782649107 0.0
vertex 49.4974746830583 49.4974746830583 0.0
endloop
endfacet
facet normal 0.0 0.0 -1.0
outer loop
vertex 35.0017856687341 49.5017856687341 0.0
vertex 49.4974746830583 49.4974746830583 0.0
vertex 38.7546618227207 49.0077101499256 0.0
endloop
endfacet
facet normal 0.0 0.0 -1.0
outer loop
vertex 38.7546618227207 49.0077101499256 0.0
vertex 49.4974746830583 49.4974746830583 0.0
vertex 42.2517856687341 47.5591540236085 0.0
endloop
endfacet
facet normal 0.0 0.0 -1.0
outer loop
vertex 42.2517856687341 47.5591540236085 0.0
vertex 49.4974746830583 49.4974746830583 0.0
vertex 45.254833995939 45.254833995939 0.0
endloop
endfacet
facet normal 0.0 0.0 -1.0
outer loop
vertex 45.254833995939 45.254833995939 0.0
vertex 49.4974746830583 49.4974746830583 0.0
vertex 47.5591540236085 42.2517856687341 0.0
endloop
endfacet
facet normal 0.0 0.0 -1.0
outer loop
vertex 47.5591540236085 42.2517856687341 0.0
vertex 49.4974746830583 49.4974746830583 0.0
vertex 49.0077101499256 38.7546618227206 0.0
endloop
endfacet
facet normal 0.0 0.0 -1.0
outer loop
vertex 49.0077101499256 38.7546618227206 0.0
vertex 49.4974746830583 49.4974746830583 0.0
vertex 49.5017856687341 35.0017856687341 0.0
endloop
endfacet
facet normal 0.0 0.0 -1.0
outer loop
vertex 49.5017856687341 35.0017856687341 0.0
vertex 49.4974746830583 49.4974746830583 0.0
vertex 60.6217782649107 34.9999999999999 0.0
endloop
endfacet
facet normal 0.0 0.0 -1.0
outer loop
vertex 49.5017856687341 35.0017856687341 0.0
vertex 60.6217782649107 34.9999999999999 0.0
vertex 53.2528761539866 14.0059244811915 0.0
endloop
endfacet
facet normal 0.0 0.0 -1.0
outer loop
vertex 53.2528761539866 14.0059244811915 0.0
vertex 60.6217782649107 34.9999999999999 0.0
vertex 56.75 12.5573683548743 0.0
endloop
endfacet
facet normal 0.0 0.0 -1.0
outer loop
vertex 56.75 12.5573683548743 0.0
vertex 60.6217782649107 34.9999999999999 0.0
vertex 59.7530483272049 10.2530483272049 0.0
endloop
endfacet
facet normal 0.0 0.0 -1.0
outer loop
vertex 59.7530483272049 10.2530483272049 0.0
vertex 60.6217782649107 34.9999999999999 0.0
vertex 62.0573683548744 7.24999999999997 0.0
endloop
endfacet
facet normal 0.0 0.0 -1.0
outer loop
vertex 62.0573683548744 7.24999999999997 0.0
vertex 60.6217782649107 34.9999999999999 0.0
vertex 67.6148078402348 18.1173331571764 0.0
endloop
endfacet
facet normal 0.0 0.0 -1.0
outer loop
vertex 62.0573683548744 7.24999999999997 0.0
vertex 67.6148078402348 18.1173331571764 0.0
vertex 63.5059244811915 3.75287615398653 0.0
endloop
endfacet
facet normal 0.0 0.0 -1.0
outer loop
vertex 63.5059244811915 3.75287615398653 0.0
vertex 67.6148078402348 18.1173331571764 0.0
vertex 64.0 -1.66858155598242e-14 0.0
endloop
endfacet
facet normal 0.0 0.0 -1.0
outer loop
vertex 64.0 -1.66858155598242e-14 0.0
vertex 67.6148078402348 18.1173331571764 0.0
vertex 67.6148078402347 -18.1173331571765 0.0
endloop
endfacet
facet normal 0.0 0.0 -1.0
outer loop
vertex 67.6148078402347 -18.1173331571765 0.0
vertex 67.6148078402348 18.1173331571764 0.0
vertex 70.0 -1.28587913910472e-14 0.0
endloop
endfacet
facet normal 0.0 0.0 -1.0
outer loop
vertex 35.0 -1.31343398422969e-14 0.0
vertex 36.8944154559249 -20.6258351788139 0.0
vertex 33.1091558815433 -20.6258351788139 0.0
endloop
endfacet
facet normal 0.0 0.0 -1.0
outer loop
vertex 36.8944154559249 -20.6258351788139 0.0
vertex 35.0 -1.31343398422969e-14 0.0
vertex 35.4940755188085 -3.75287615398656 0.0
endloop
endfacet
facet normal 0.0 0.0 -1.0
outer loop
vertex 36.8944154559249 -20.6258351788139 0.0
vertex 35.4940755188085 -3.75287615398656 0.0
vertex 36.9426316451256 -7.25000000000001 0.0
endloop
endfacet
facet normal 0.0 0.0 -1.0
outer loop
vertex 36.8944154559249 -20.6258351788139 0.0
vertex 36.9426316451256 -7.25000000000001 0.0
vertex 40.5506954380279 -21.6055324473204 0.0
endloop
endfacet
facet normal 0.0 0.0 -1.0
outer loop
vertex 40.5506954380279 -21.6055324473204 0.0
vertex 36.9426316451256 -7.25000000000001 0.0
vertex 39.2469516727951 -10.253048327205 0.0
endloop
endfacet
facet normal 0.0 0.0 -1.0
outer loop
vertex 40.5506954380279 -21.6055324473204 0.0
vertex 39.2469516727951 -10.253048327205 0.0
vertex 42.25 -12.5573683548744 0.0
endloop
endfacet
facet normal 0.0 0.0 -1.0
outer loop
vertex 40.5506954380279 -21.6055324473204 0.0
vertex 42.25 -12.5573683548744 0.0
vertex 43.4720963426443 -23.2922040460116 0.0
endloop
endfacet
facet normal 0.0 0.0 -1.0
outer loop
vertex 43.4720963426443 -23.2922040460116 0.0
vertex 42.25 -12.5573683548744 0.0
vertex 45.7471238460134 -14.0059244811915 0.0
endloop
endfacet
facet normal 0.0 0.0 -1.0
outer loop
vertex 43.4720963426443 -23.2922040460116 0.0
vertex 45.7471238460134 -14.0059244811915 0.0
vertex 43.8288263893605 -23.4981622345112 0.0
endloop
endfacet
facet normal 0.0 0.0 -1.0
outer loop
vertex 43.8288263893605 -23.4981622345112 0.0
vertex 45.7471238460134 -14.0059244811915 0.0
vertex 46.505409102957 -26.1747449481077 0.0
endloop
endfacet
facet normal 0.0 0.0 -1.0
outer loop
vertex 46.505409102957 -26.1747449481077 0.0
vertex 45.7471238460134 -14.0059244811915 0.0
vertex 47.237334729878 -14.2021144659842 0.0
endloop
endfacet
facet normal 0.0 0.0 -1.0
outer loop
vertex 46.505409102957 -26.1747449481077 0.0
vertex 47.237334729878 -14.2021144659842 0.0
vertex 48.3980388901478 -29.4528758994403 0.0
endloop
endfacet
facet normal 0.0 0.0 -1.0
outer loop
vertex 48.3980388901478 -29.4528758994403 0.0
vertex 47.237334729878 -14.2021144659842 0.0
vertex 49.5 -14.5 0.0
endloop
endfacet
facet normal 0.0 0.0 -1.0
outer loop
vertex 48.3980388901478 -29.4528758994403 0.0
vertex 49.5 -14.5 0.0
vertex 49.3777361586544 -33.1091558815434 0.0
endloop
endfacet
facet normal 0.0 0.0 -1.0
outer loop
vertex 49.3777361586544 -33.1091558815434 0.0
vertex 49.5 -14.5 0.0
vertex 49.3777361586544 -36.8944154559249 0.0
endloop
endfacet
facet normal 0.0 0.0 -1.0
outer loop
vertex 49.3777361586544 -36.8944154559249 0.0
vertex 49.5 -14.5 0.0
vertex 49.4974746830583 -49.4974746830583 0.0
endloop
endfacet
facet normal 0.0 0.0 -1.0
outer loop
vertex 49.4974746830583 -49.4974746830583 0.0
vertex 49.5 -14.5 0.0
vertex 60.6217782649107 -35.0 0.0
endloop
endfacet
facet normal 0.0 0.0 -1.0
outer loop
vertex 60.6217782649107 -35.0 0.0
vertex 49.5 -14.5 0.0
vertex 53.2528761539865 -14.0059244811915 0.0
endloop
endfacet
facet normal 0.0 0.0 -1.0
outer loop
vertex 60.6217782649107 -35.0 0.0
vertex 53.2528761539865 -14.0059244811915 0.0
vertex 56.75 -12.5573683548744 0.0
endloop
endfacet
facet normal 0.0 0.0 -1.0
outer loop
vertex 60.6217782649107 -35.0 0.0
vertex 56.75 -12.5573683548744 0.0
vertex 59.7530483272049 -10.253048327205 0.0
endloop
endfacet
facet normal 0.0 0.0 -1.0
outer loop
vertex 60.6217782649107 -35.0 0.0
vertex 59.7530483272049 -10.253048327205 0.0
vertex 62.0573683548744 -7.25000000000002 0.0
endloop
endfacet
facet normal 0.0 0.0 -1.0
outer loop
vertex 60.6217782649107 -35.0 0.0
vertex 62.0573683548744 -7.25000000000002 0.0
vertex 67.6148078402347 -18.1173331571765 0.0
endloop
endfacet
facet normal 0.0 0.0 -1.0
outer loop
vertex 67.6148078402347 -18.1173331571765 0.0
vertex 62.0573683548744 -7.25000000000002 0.0
vertex 63.5059244811915 -3.75287615398657 0.0
endloop
endfacet
facet normal 0.0 0.0 -1.0
outer loop
vertex 67.6148078402347 -18.1173331571765 0.0
vertex 63.5059244811915 -3.75287615398657 0.0
vertex 64.0 -1.66858155598242e-14 0.0
endloop
endfacet
facet normal 0.0 0.0 -1.0
outer loop
vertex 20.9958611875426 31.2489095147476 0.0
vertex 20.6258351788138 -33.1091558815434 0.0
vertex 20.5017856687341 35.0017856687341 0.0
endloop
endfacet
facet normal 0.0 0.0 -1.0
outer loop
vertex 20.6258351788138 -33.1091558815434 0.0
vertex 20.9958611875426 31.2489095147476 0.0
vertex 21.6055324473204 -29.4528758994403 0.0
endloop
endfacet
facet normal 0.0 0.0 -1.0
outer loop
vertex 21.6055324473204 -29.4528758994403 0.0
vertex 20.9958611875426 31.2489095147476 0.0
vertex 22.4444173138597 27.7517856687341 0.0
endloop
endfacet
facet normal 0.0 0.0 -1.0
outer loop
vertex 21.6055324473204 -29.4528758994403 0.0
vertex 22.4444173138597 27.7517856687341 0.0
vertex 23.4981622345112 -26.1747449481077 0.0
endloop
endfacet
facet normal 0.0 0.0 -1.0
outer loop
vertex 23.4981622345112 -26.1747449481077 0.0
vertex 22.4444173138597 27.7517856687341 0.0
vertex 24.7487373415292 24.7487373415292 0.0
endloop
endfacet
facet normal 0.0 0.0 -1.0
outer loop
vertex 23.4981622345112 -26.1747449481077 0.0
vertex 24.7487373415292 24.7487373415292 0.0
vertex 26.1747449481076 -23.4981622345112 0.0
endloop
endfacet
facet normal 0.0 0.0 -1.0
outer loop
vertex 26.1747449481076 -23.4981622345112 0.0
vertex 24.7487373415292 24.7487373415292 0.0
vertex 27.7517856687341 22.4444173138597 0.0
endloop
endfacet
facet normal 0.0 0.0 -1.0
outer loop
vertex 26.1747449481076 -23.4981622345112 0.0
vertex 27.7517856687341 22.4444173138597 0.0
vertex 29.4528758994403 -21.6055324473204 0.0
endloop
endfacet
facet normal 0.0 0.0 -1.0
outer loop
vertex 29.4528758994403 -21.6055324473204 0.0
vertex 27.7517856687341 22.4444173138597 0.0
vertex 31.2489095147476 20.9958611875426 0.0
endloop
endfacet
facet normal 0.0 0.0 -1.0
outer loop
vertex 29.4528758994403 -21.6055324473204 0.0
vertex 31.2489095147476 20.9958611875426 0.0
vertex 33.1091558815433 -20.6258351788139 0.0
endloop
endfacet
facet normal 0.0 0.0 -1.0
outer loop
vertex 33.1091558815433 -20.6258351788139 0.0
vertex 31.2489095147476 20.9958611875426 0.0
vertex 35.0017856687341 20.5017856687341 0.0
endloop
endfacet
facet normal 0.0 0.0 -1.0
outer loop
vertex 33.1091558815433 -20.6258351788139 0.0
vertex 35.0017856687341 20.5017856687341 0.0
vertex 35.0 -1.31343398422969e-14 0.0
endloop
endfacet
facet normal 0.0 0.0 -1.0
outer loop
vertex 35.0 -1.31343398422969e-14 0.0
vertex 35.0017856687341 20.5017856687341 0.0
vertex 35.4940755188085 3.75287615398654 0.0
endloop
endfacet
facet normal 0.0 0.0 -1.0
outer loop
vertex 35.4940755188085 3.75287615398654 0.0
vertex 35.0017856687341 20.5017856687341 0.0
vertex 38.7546618227206 20.9958611875426 0.0
endloop
endfacet
facet normal 0.0 0.0 -1.0
outer loop
vertex 35.4940755188085 3.75287615398654 0.0
vertex 38.7546618227206 20.9958611875426 0.0
vertex 36.9426316451256 7.24999999999998 0.0
endloop
endfacet
facet normal 0.0 0.0 -1.0
outer loop
vertex 36.9426316451256 7.24999999999998 0.0
vertex 38.7546618227206 20.9958611875426 0.0
vertex 39.2469516727951 10.2530483272049 0.0
endloop
endfacet
facet normal 0.0 0.0 -1.0
outer loop
vertex 39.2469516727951 10.2530483272049 0.0
vertex 38.7546618227206 20.9958611875426 0.0
vertex 42.2517856687341 22.4444173138597 0.0
endloop
endfacet
facet normal 0.0 0.0 -1.0
outer loop
vertex 39.2469516727951 10.2530483272049 0.0
vertex 42.2517856687341 22.4444173138597 0.0
vertex 42.25 12.5573683548743 0.0
endloop
endfacet
facet normal 0.0 0.0 -1.0
outer loop
vertex 42.25 12.5573683548743 0.0
vertex 42.2517856687341 22.4444173138597 0.0
vertex 45.7471238460134 14.0059244811915 0.0
endloop
endfacet
facet normal 0.0 0.0 -1.0
outer loop
vertex 45.7471238460134 14.0059244811915 0.0
vertex 42.2517856687341 22.4444173138597 0.0
vertex 43.4442511587606 23.3594282665906 0.0
endloop
endfacet
facet normal 0.0 0.0 -1.0
outer loop
vertex 45.7471238460134 14.0059244811915 0.0
vertex 43.4442511587606 23.3594282665906 0.0
vertex 45.254833995939 24.7487373415292 0.0
endloop
endfacet
facet normal 0.0 0.0 -1.0
outer loop
vertex 45.7471238460134 14.0059244811915 0.0
vertex 45.254833995939 24.7487373415292 0.0
vertex 47.5591540236085 27.7517856687341 0.0
endloop
endfacet
facet normal 0.0 0.0 -1.0
outer loop
vertex 45.7471238460134 14.0059244811915 0.0
vertex 47.5591540236085 27.7517856687341 0.0
vertex 47.2373347298781 14.2021144659842 0.0
endloop
endfacet
facet normal 0.0 0.0 -1.0
outer loop
vertex 47.2373347298781 14.2021144659842 0.0
vertex 47.5591540236085 27.7517856687341 0.0
vertex 49.5 14.5 0.0
endloop
endfacet
facet normal 0.0 0.0 -1.0
outer loop
vertex 49.5 14.5 0.0
vertex 47.5591540236085 27.7517856687341 0.0
vertex 49.0077101499256 31.2489095147475 0.0
endloop
endfacet
facet normal 0.0 0.0 -1.0
outer loop
vertex 49.5 14.5 0.0
vertex 49.0077101499256 31.2489095147475 0.0
vertex 49.5017856687341 35.0017856687341 0.0
endloop
endfacet
facet normal 0.0 0.0 -1.0
outer loop
vertex 49.5 14.5 0.0
vertex 49.5017856687341 35.0017856687341 0.0
vertex 53.2528761539866 14.0059244811915 0.0
endloop
endfacet
facet normal 0.0 0.0 -1.0
outer loop
vertex -49.4974746830583 49.4974746830583 0.0
vertex -48.3980388901478 40.5506954380279 0.0
vertex -49.3777361586544 36.8944154559248 0.0
endloop
endfacet
facet normal 0.0 0.0 -1.0
outer loop
vertex -48.3980388901478 40.5506954380279 0.0
vertex -49.4974746830583 49.4974746830583 0.0
vertex -46.505409102957 43.8288263893605 0.0
endloop
endfacet
facet normal 0.0 0.0 -1.0
outer loop
vertex -46.505409102957 43.8288263893605 0.0
vertex -49.4974746830583 49.4974746830583 0.0
vertex -35.0 60.6217782649107 0.0
endloop
endfacet
facet normal 0.0 0.0 -1.0
outer loop
vertex -46.505409102957 43.8288263893605 0.0
vertex -35.0 60.6217782649107 0.0
vertex -43.8288263893606 46.505409102957 0.0
endloop
endfacet
facet normal 0.0 0.0 -1.0
outer loop
vertex -43.8288263893606 46.505409102957 0.0
vertex -35.0 60.6217782649107 0.0
vertex -40.5506954380279 48.3980388901477 0.0
endloop
endfacet
facet normal 0.0 0.0 -1.0
outer loop
vertex -40.5506954380279 48.3980388901477 0.0
vertex -35.0 60.6217782649107 0.0
vertex -36.8944154559249 49.3777361586543 0.0
endloop
endfacet
facet normal 0.0 0.0 -1.0
outer loop
vertex -36.8944154559249 49.3777361586543 0.0
vertex -35.0 60.6217782649107 0.0
vertex -33.1091558815434 49.3777361586543 0.0
endloop
endfacet
facet normal 0.0 0.0 -1.0
outer loop
vertex -33.1091558815434 49.3777361586543 0.0
vertex -35.0 60.6217782649107 0.0
vertex -18.1173331571764 67.6148078402348 0.0
endloop
endfacet
facet normal 0.0 0.0 -1.0
outer loop
vertex -33.1091558815434 49.3777361586543 0.0
vertex -18.1173331571764 67.6148078402348 0.0
vertex -29.4528758994403 48.3980388901478 0.0
endloop
endfacet
facet normal 0.0 0.0 -1.0
outer loop
vertex -29.4528758994403 48.3980388901478 0.0
vertex -18.1173331571764 67.6148078402348 0.0
vertex -26.1747449481077 46.505409102957 0.0
endloop
endfacet
facet normal 0.0 0.0 -1.0
outer loop
vertex -26.1747449481077 46.505409102957 0.0
vertex -18.1173331571764 67.6148078402348 0.0
vertex -23.4981622345112 43.8288263893605 0.0
endloop
endfacet
facet normal 0.0 0.0 -1.0
outer loop
vertex -23.4981622345112 43.8288263893605 0.0
vertex -18.1173331571764 67.6148078402348 0.0
vertex -23.2922040460116 43.4720963426443 0.0
endloop
endfacet
facet normal 0.0 0.0 -1.0
outer loop
vertex -23.2922040460116 43.4720963426443 0.0
vertex -18.1173331571764 67.6148078402348 0.0
vertex -21.6055324473205 40.5506954380279 0.0
endloop
endfacet
facet normal 0.0 0.0 -1.0
outer loop
vertex -21.6055324473205 40.5506954380279 0.0
vertex -18.1173331571764 67.6148078402348 0.0
vertex -20.6258351788139 36.8944154559249 0.0
endloop
endfacet
facet normal 0.0 0.0 -1.0
outer loop
vertex -20.6258351788139 36.8944154559249 0.0
vertex -18.1173331571764 67.6148078402348 0.0
vertex -20.6258351788139 33.1091558815433 0.0
endloop
endfacet
facet normal 0.0 0.0 -1.0
outer loop
vertex -20.6258351788139 33.1091558815433 0.0
vertex -18.1173331571764 67.6148078402348 0.0
vertex -20.0 2.5 0.0
endloop
endfacet
facet normal 0.0 0.0 -1.0
outer loop
vertex -20.0 2.5 0.0
vertex -18.1173331571764 67.6148078402348 0.0
vertex -19.6764761936218 2.45740728286134 0.0
endloop
endfacet
facet normal 0.0 0.0 -1.0
outer loop
vertex -19.6764761936218 2.45740728286134 0.0
vertex -18.1173331571764 67.6148078402348 0.0
vertex -19.3529523872437 2.41481456572267 0.0
endloop
endfacet
facet normal 0.0 0.0 -1.0
outer loop
vertex -19.3529523872437 2.41481456572267 0.0
vertex -18.1173331571764 67.6148078402348 0.0
vertex -18.75 2.1650635094611 0.0
endloop
endfacet
facet normal 0.0 0.0 -1.0
outer loop
vertex -18.75 2.1650635094611 0.0
vertex -18.1173331571764 67.6148078402348 0.0
vertex -18.2322330470336 1.76776695296637 0.0
endloop
endfacet
facet normal 0.0 0.0 -1.0
outer loop
vertex -18.2322330470336 1.76776695296637 0.0
vertex -18.1173331571764 67.6148078402348 0.0
vertex -17.8349364905389 1.25 0.0
endloop
endfacet
facet normal 0.0 0.0 -1.0
outer loop
vertex -17.8349364905389 1.25 0.0
vertex -18.1173331571764 67.6148078402348 0.0
vertex -14.5 49.5 0.0
endloop
endfacet
facet normal 0.0 0.0 -1.0
outer loop
vertex -14.5 49.5 0.0
vertex -18.1173331571764 67.6148078402348 0.0
vertex -14.0059244811915 53.2528761539865 0.0
endloop
endfacet
facet normal 0.0 0.0 -1.0
outer loop
vertex -14.0059244811915 53.2528761539865 0.0
vertex -18.1173331571764 67.6148078402348 0.0
vertex -12.5573683548744 56.75 0.0
endloop
endfacet
facet normal 0.0 0.0 -1.0
outer loop
vertex -12.5573683548744 56.75 0.0
vertex -18.1173331571764 67.6148078402348 0.0
vertex -10.253048327205 59.7530483272049 0.0
endloop
endfacet
facet normal 0.0 0.0 -1.0
outer loop
vertex -10.253048327205 59.7530483272049 0.0
vertex -18.1173331571764 67.6148078402348 0.0
vertex 0.0 70.0 0.0
endloop
endfacet
facet normal 0.0 0.0 -1.0
outer loop
vertex -17.8349364905389 1.25 0.0
vertex -14.5 49.5 0.0
vertex -17.5851854342773 0.647047612756302 0.0
endloop
endfacet
facet normal 0.0 0.0 -1.0
outer loop
vertex -17.5851854342773 0.647047612756302 0.0
vertex -14.5 49.5 0.0
vertex -17.5 0.0 0.0
endloop
endfacet
facet normal 0.0 0.0 -1.0
outer loop
vertex -10.253048327205 59.7530483272049 0.0
vertex 0.0 70.0 0.0
vertex -7.25000000000001 62.0573683548744 0.0
endloop
endfacet
facet normal 0.0 0.0 -1.0
outer loop
vertex -7.25000000000001 62.0573683548744 0.0
vertex 0.0 70.0 0.0
vertex -3.75287615398657 63.5059244811915 0.0
endloop
endfacet
facet normal 0.0 0.0 -1.0
outer loop
vertex -3.75287615398657 63.5059244811915 0.0
vertex 0.0 70.0 0.0
vertex -1.59204142317987e-14 64.0 0.0
endloop
endfacet
facet normal 0.0 0.0 -1.0
outer loop
vertex -1.59204142317987e-14 64.0 0.0
vertex 0.0 70.0 0.0
vertex 3.75287615398654 63.5059244811915 0.0
endloop
endfacet
facet normal 0.0 0.0 -1.0
outer loop
vertex 3.75287615398654 63.5059244811915 0.0
vertex 0.0 70.0 0.0
vertex 18.1173331571765 67.6148078402347 0.0
endloop
endfacet
facet normal 0.0 0.0 -1.0
outer loop
vertex 3.75287615398654 63.5059244811915 0.0
vertex 18.1173331571765 67.6148078402347 0.0
vertex 7.24999999999999 62.0573683548744 0.0
endloop
endfacet
facet normal 0.0 0.0 -1.0
outer loop
vertex 7.24999999999999 62.0573683548744 0.0
vertex 18.1173331571765 67.6148078402347 0.0
vertex 10.2530483272049 59.7530483272049 0.0
endloop
endfacet
facet normal 0.0 0.0 -1.0
outer loop
vertex 10.2530483272049 59.7530483272049 0.0
vertex 18.1173331571765 67.6148078402347 0.0
vertex 12.5573683548743 56.75 0.0
endloop
endfacet
facet normal 0.0 0.0 -1.0
outer loop
vertex 12.5573683548743 56.75 0.0
vertex 18.1173331571765 67.6148078402347 0.0
vertex 14.0059244811915 53.2528761539865 0.0
endloop
endfacet
facet normal 0.0 0.0 -1.0
outer loop
vertex 14.0059244811915 53.2528761539865 0.0
vertex 18.1173331571765 67.6148078402347 0.0
vertex 14.5 49.5 0.0
endloop
endfacet
facet normal 0.0 0.0 -1.0
outer loop
vertex 14.5 49.5 0.0
vertex 18.1173331571765 67.6148078402347 0.0
vertex 14.5 -49.5 0.0
endloop
endfacet
facet normal 0.0 0.0 -1.0
outer loop
vertex 14.5 -49.5 0.0
vertex 18.1173331571765 67.6148078402347 0.0
vertex 18.1173331571764 -67.6148078402348 0.0
endloop
endfacet
facet normal 0.0 0.0 -1.0
outer loop
vertex 18.1173331571764 -67.6148078402348 0.0
vertex 18.1173331571765 67.6148078402347 0.0
vertex 20.6258351788139 -36.8944154559249 0.0
endloop
endfacet
facet normal 0.0 0.0 -1.0
outer loop
vertex 18.1173331571764 -67.6148078402348 0.0
vertex 20.6258351788139 -36.8944154559249 0.0
vertex 21.6055324473204 -40.5506954380279 0.0
endloop
endfacet
facet normal 0.0 0.0 -1.0
outer loop
vertex 18.1173331571764 -67.6148078402348 0.0
vertex 21.6055324473204 -40.5506954380279 0.0
vertex 23.2922040460116 -43.4720963426443 0.0
endloop
endfacet
facet normal 0.0 0.0 -1.0
outer loop
vertex 18.1173331571764 -67.6148078402348 0.0
vertex 23.2922040460116 -43.4720963426443 0.0
vertex 23.4981622345112 -43.8288263893606 0.0
endloop
endfacet
facet normal 0.0 0.0 -1.0
outer loop
vertex 18.1173331571764 -67.6148078402348 0.0
vertex 23.4981622345112 -43.8288263893606 0.0
vertex 35.0 -60.6217782649107 0.0
endloop
endfacet
facet normal 0.0 0.0 -1.0
outer loop
vertex 20.6258351788139 -36.8944154559249 0.0
vertex 18.1173331571765 67.6148078402347 0.0
vertex 20.5017856687341 35.0017856687341 0.0
endloop
endfacet
facet normal 0.0 0.0 -1.0
outer loop
vertex 20.6258351788139 -36.8944154559249 0.0
vertex 20.5017856687341 35.0017856687341 0.0
vertex 20.6258351788138 -33.1091558815434 0.0
endloop
endfacet
facet normal 0.0 0.0 -1.0
outer loop
vertex 35.0 -60.6217782649107 0.0
vertex 23.4981622345112 -43.8288263893606 0.0
vertex 26.1747449481077 -46.505409102957 0.0
endloop
endfacet
facet normal 0.0 0.0 -1.0
outer loop
vertex 35.0 -60.6217782649107 0.0
vertex 26.1747449481077 -46.505409102957 0.0
vertex 29.4528758994403 -48.3980388901478 0.0
endloop
endfacet
facet normal 0.0 0.0 -1.0
outer loop
vertex 35.0 -60.6217782649107 0.0
vertex 29.4528758994403 -48.3980388901478 0.0
vertex 33.1091558815434 -49.3777361586544 0.0
endloop
endfacet
facet normal 0.0 0.0 -1.0
outer loop
vertex 35.0 -60.6217782649107 0.0
vertex 33.1091558815434 -49.3777361586544 0.0
vertex 36.8944154559249 -49.3777361586544 0.0
endloop
endfacet
facet normal 0.0 0.0 -1.0
outer loop
vertex 35.0 -60.6217782649107 0.0
vertex 36.8944154559249 -49.3777361586544 0.0
vertex 49.4974746830583 -49.4974746830583 0.0
endloop
endfacet
facet normal 0.0 0.0 -1.0
outer loop
vertex 49.4974746830583 -49.4974746830583 0.0
vertex 36.8944154559249 -49.3777361586544 0.0
vertex 40.5506954380279 -48.3980388901478 0.0
endloop
endfacet
facet normal 0.0 0.0 -1.0
outer loop
vertex 49.4974746830583 -49.4974746830583 0.0
vertex 40.5506954380279 -48.3980388901478 0.0
vertex 43.8288263893605 -46.505409102957 0.0
endloop
endfacet
facet normal 0.0 0.0 -1.0
outer loop
vertex 49.4974746830583 -49.4974746830583 0.0
vertex 43.8288263893605 -46.505409102957 0.0
vertex 46.505409102957 -43.8288263893606 0.0
endloop
endfacet
facet normal 0.0 0.0 -1.0
outer loop
vertex 49.4974746830583 -49.4974746830583 0.0
vertex 46.505409102957 -43.8288263893606 0.0
vertex 48.3980388901478 -40.5506954380279 0.0
endloop
endfacet
facet normal 0.0 0.0 -1.0
outer loop
vertex 49.4974746830583 -49.4974746830583 0.0
vertex 48.3980388901478 -40.5506954380279 0.0
vertex 49.3777361586544 -36.8944154559249 0.0
endloop
endfacet
facet normal 0.0 0.0 -1.0
outer loop
vertex -67.6148078402348 18.1173331571765 0.0
vertex -67.6148078402348 -18.1173331571764 0.0
vertex -70.0 4.28626379701573e-15 0.0
endloop
endfacet
facet normal 0.0 0.0 -1.0
outer loop
vertex -67.6148078402348 -18.1173331571764 0.0
vertex -67.6148078402348 18.1173331571765 0.0
vertex -60.6217782649107 35.0 0.0
endloop
endfacet
facet normal 0.0 0.0 -1.0
outer loop
vertex -67.6148078402348 -18.1173331571764 0.0
vertex -60.6217782649107 35.0 0.0
vertex -63.9150200467133 1.56754491254769 0.0
endloop
endfacet
facet normal 0.0 0.0 -1.0
outer loop
vertex -63.9150200467133 1.56754491254769 0.0
vertex -60.6217782649107 35.0 0.0
vertex -63.0181296721741 5.24501383852187 0.0
endloop
endfacet
facet normal 0.0 0.0 -1.0
outer loop
vertex -63.0181296721741 5.24501383852187 0.0
vertex -60.6217782649107 35.0 0.0
vertex -61.2000011002418 8.56504373919599 0.0
endloop
endfacet
facet normal 0.0 0.0 -1.0
outer loop
vertex -61.2000011002418 8.56504373919599 0.0
vertex -60.6217782649107 35.0 0.0
vertex -58.584536788494 11.3013800634479 0.0
endloop
endfacet
facet normal 0.0 0.0 -1.0
outer loop
vertex -58.584536788494 11.3013800634479 0.0
vertex -60.6217782649107 35.0 0.0
vertex -49.4974746830583 49.4974746830583 0.0
endloop
endfacet
facet normal 0.0 0.0 -1.0
outer loop
vertex -58.584536788494 11.3013800634479 0.0
vertex -49.4974746830583 49.4974746830583 0.0
vertex -55.3499763075173 13.2675460127895 0.0
endloop
endfacet
facet normal 0.0 0.0 -1.0
outer loop
vertex -55.3499763075173 13.2675460127895 0.0
vertex -49.4974746830583 49.4974746830583 0.0
vertex -51.7167496087262 14.3295506270159 0.0
endloop
endfacet
facet normal 0.0 0.0 -1.0
outer loop
vertex -51.7167496087262 14.3295506270159 0.0
vertex -49.4974746830583 49.4974746830583 0.0
vertex -49.3777361586544 33.1091558815433 0.0
endloop
endfacet
facet normal 0.0 0.0 -1.0
outer loop
vertex -51.7167496087262 14.3295506270159 0.0
vertex -49.3777361586544 33.1091558815433 0.0
vertex -47.9324550874523 14.4150200467133 0.0
endloop
endfacet
facet normal 0.0 0.0 -1.0
outer loop
vertex -49.3777361586544 33.1091558815433 0.0
vertex -49.4974746830583 49.4974746830583 0.0
vertex -49.3777361586544 36.8944154559248 0.0
endloop
endfacet
facet normal 0.0 0.0 -1.0
outer loop
vertex -47.9324550874523 14.4150200467133 0.0
vertex -49.3777361586544 33.1091558815433 0.0
vertex -48.3980388901478 29.4528758994403 0.0
endloop
endfacet
facet normal 0.0 0.0 -1.0
outer loop
vertex -47.9324550874523 14.4150200467133 0.0
vertex -48.3980388901478 29.4528758994403 0.0
vertex -46.505409102957 26.1747449481076 0.0
endloop
endfacet
facet normal 0.0 0.0 -1.0
outer loop
vertex -47.9324550874523 14.4150200467133 0.0
vertex -46.505409102957 26.1747449481076 0.0
vertex -47.2210170316158 14.2415088744356 0.0
endloop
endfacet
facet normal 0.0 0.0 -1.0
outer loop
vertex -47.2210170316158 14.2415088744356 0.0
vertex -46.505409102957 26.1747449481076 0.0
vertex -44.2549861614781 13.5181296721741 0.0
endloop
endfacet
facet normal 0.0 0.0 -1.0
outer loop
vertex -44.2549861614781 13.5181296721741 0.0
vertex -46.505409102957 26.1747449481076 0.0
vertex -43.8288263893606 23.4981622345112 0.0
endloop
endfacet
facet normal 0.0 0.0 -1.0
outer loop
vertex -44.2549861614781 13.5181296721741 0.0
vertex -43.8288263893606 23.4981622345112 0.0
vertex -40.934956260804 11.7000011002418 0.0
endloop
endfacet
facet normal 0.0 0.0 -1.0
outer loop
vertex -40.934956260804 11.7000011002418 0.0
vertex -43.8288263893606 23.4981622345112 0.0
vertex -43.4720963426444 23.2922040460116 0.0
endloop
endfacet
facet normal 0.0 0.0 -1.0
outer loop
vertex -40.934956260804 11.7000011002418 0.0
vertex -43.4720963426444 23.2922040460116 0.0
vertex -40.5506954380279 21.6055324473204 0.0
endloop
endfacet
facet normal 0.0 0.0 -1.0
outer loop
vertex -40.934956260804 11.7000011002418 0.0
vertex -40.5506954380279 21.6055324473204 0.0
vertex -38.1986199365521 9.084536788494 0.0
endloop
endfacet
facet normal 0.0 0.0 -1.0
outer loop
vertex -38.1986199365521 9.084536788494 0.0
vertex -40.5506954380279 21.6055324473204 0.0
vertex -36.8944154559249 20.6258351788138 0.0
endloop
endfacet
facet normal 0.0 0.0 -1.0
outer loop
vertex -38.1986199365521 9.084536788494 0.0
vertex -36.8944154559249 20.6258351788138 0.0
vertex -36.2324539872105 5.84997630751724 0.0
endloop
endfacet
facet normal 0.0 0.0 -1.0
outer loop
vertex -36.2324539872105 5.84997630751724 0.0
vertex -36.8944154559249 20.6258351788138 0.0
vertex -33.1091558815434 20.6258351788138 0.0
endloop
endfacet
facet normal 0.0 0.0 -1.0
outer loop
vertex -36.2324539872105 5.84997630751724 0.0
vertex -33.1091558815434 20.6258351788138 0.0
vertex -35.1704493729841 2.21674960872614 0.0
endloop
endfacet
facet normal 0.0 0.0 -1.0
outer loop
vertex -35.1704493729841 2.21674960872614 0.0
vertex -33.1091558815434 20.6258351788138 0.0
vertex -35.0849799532867 -1.56754491254774 0.0
endloop
endfacet
facet normal 0.0 0.0 -1.0
outer loop
vertex -35.0849799532867 -1.56754491254774 0.0
vertex -33.1091558815434 20.6258351788138 0.0
vertex -34.9525063912483 -20.5018694085342 0.0
endloop
endfacet
facet normal 0.0 0.0 -1.0
outer loop
vertex -34.9525063912483 -20.5018694085342 0.0
vertex -33.1091558815434 20.6258351788138 0.0
vertex -31.2013310613783 -21.0086964895204 0.0
endloop
endfacet
facet normal 0.0 0.0 -1.0
outer loop
vertex -31.2013310613783 -21.0086964895204 0.0
vertex -33.1091558815434 20.6258351788138 0.0
vertex -29.4528758994403 21.6055324473204 0.0
endloop
endfacet
facet normal 0.0 0.0 -1.0
outer loop
vertex -31.2013310613783 -21.0086964895204 0.0
vertex -29.4528758994403 21.6055324473204 0.0
vertex -27.7091504324513 -22.4691294733968 0.0
endloop
endfacet
facet normal 0.0 0.0 -1.0
outer loop
vertex -27.7091504324513 -22.4691294733968 0.0
vertex -29.4528758994403 21.6055324473204 0.0
vertex -26.1747449481077 23.4981622345112 0.0
endloop
endfacet
facet normal 0.0 0.0 -1.0
outer loop
vertex -27.7091504324513 -22.4691294733968 0.0
vertex -26.1747449481077 23.4981622345112 0.0
vertex -24.7139508432275 -24.7836422657918 0.0
endloop
endfacet
facet normal 0.0 0.0 -1.0
outer loop
vertex -24.7139508432275 -24.7836422657918 0.0
vertex -26.1747449481077 23.4981622345112 0.0
vertex -23.4981622345112 26.1747449481076 0.0
endloop
endfacet
facet normal 0.0 0.0 -1.0
outer loop
vertex -24.7139508432275 -24.7836422657918 0.0
vertex -23.4981622345112 26.1747449481076 0.0
vertex -22.419850195911 -27.794504644817 0.0
endloop
endfacet
facet normal 0.0 0.0 -1.0
outer loop
vertex -22.419850195911 -27.794504644817 0.0
vertex -23.4981622345112 26.1747449481076 0.0
vertex -22.5 3.06161699786838e-16 0.0
endloop
endfacet
facet normal 0.0 0.0 -1.0
outer loop
vertex -22.419850195911 -27.794504644817 0.0
vertex -22.5 3.06161699786838e-16 0.0
vertex -22.4148145657227 -0.647047612756301 0.0
endloop
endfacet
facet normal 0.0 0.0 -1.0
outer loop
vertex -22.419850195911 -27.794504644817 0.0
vertex -22.4148145657227 -0.647047612756301 0.0
vertex -20.983187658436 -31.296531315027 0.0
endloop
endfacet
facet normal 0.0 0.0 -1.0
outer loop
vertex -20.983187658436 -31.296531315027 0.0
vertex -22.4148145657227 -0.647047612756301 0.0
vertex -22.1650635094611 -1.25 0.0
endloop
endfacet
facet normal 0.0 0.0 -1.0
outer loop
vertex -20.983187658436 -31.296531315027 0.0
vertex -22.1650635094611 -1.25 0.0
vertex -21.7677669529664 -1.76776695296637 0.0
endloop
endfacet
facet normal 0.0 0.0 -1.0
outer loop
vertex -20.983187658436 -31.296531315027 0.0
vertex -21.7677669529664 -1.76776695296637 0.0
vertex -21.25 -2.1650635094611 0.0
endloop
endfacet
facet normal 0.0 0.0 -1.0
outer loop
vertex -20.983187658436 -31.296531315027 0.0
vertex -21.25 -2.1650635094611 0.0
vertex -20.6470476127563 -2.41481456572267 0.0
endloop
endfacet
facet normal 0.0 0.0 -1.0
outer loop
vertex -20.983187658436 -31.296531315027 0.0
vertex -20.6470476127563 -2.41481456572267 0.0
vertex -20.5018694085342 -35.0510649462199 0.0
endloop
endfacet
facet normal 0.0 0.0 -1.0
outer loop
vertex -20.5018694085342 -35.0510649462199 0.0
vertex -20.6470476127563 -2.41481456572267 0.0
vertex -20.0 -2.5 0.0
endloop
endfacet
facet normal 0.0 0.0 -1.0
outer loop
vertex -21.6055324473205 29.4528758994403 0.0
vertex -22.5 3.06161699786838e-16 0.0
vertex -23.4981622345112 26.1747449481076 0.0
endloop
endfacet
facet normal 0.0 0.0 -1.0
outer loop
vertex -22.5 3.06161699786838e-16 0.0
vertex -21.6055324473205 29.4528758994403 0.0
vertex -22.4148145657227 0.647047612756303 0.0
endloop
endfacet
facet normal 0.0 0.0 -1.0
outer loop
vertex -22.4148145657227 0.647047612756303 0.0
vertex -21.6055324473205 29.4528758994403 0.0
vertex -22.1650635094611 1.25 0.0
endloop
endfacet
facet normal 0.0 0.0 -1.0
outer loop
vertex -22.1650635094611 1.25 0.0
vertex -21.6055324473205 29.4528758994403 0.0
vertex -21.7677669529664 1.76776695296637 0.0
endloop
endfacet
facet normal 0.0 0.0 -1.0
outer loop
vertex -21.7677669529664 1.76776695296637 0.0
vertex -21.6055324473205 29.4528758994403 0.0
vertex -21.25 2.1650635094611 0.0
endloop
endfacet
facet normal 0.0 0.0 -1.0
outer loop
vertex -21.25 2.1650635094611 0.0
vertex -21.6055324473205 29.4528758994403 0.0
vertex -20.6258351788139 33.1091558815433 0.0
endloop
endfacet
facet normal 0.0 0.0 -1.0
outer loop
vertex -21.25 2.1650635094611 0.0
vertex -20.6258351788139 33.1091558815433 0.0
vertex -20.6470476127563 2.41481456572267 0.0
endloop
endfacet
facet normal 0.0 0.0 -1.0
outer loop
vertex -20.6470476127563 2.41481456572267 0.0
vertex -20.6258351788139 33.1091558815433 0.0
vertex -20.0 2.5 0.0
endloop
endfacet
facet normal 0.0 0.0 -1.0
outer loop
vertex -47.2832503912739 -14.3295506270159 0.0
vertex -49.501701928934 -34.9525063912483 0.0
vertex -51.0675449125477 -14.4150200467133 0.0
endloop
endfacet
facet normal 0.0 0.0 -1.0
outer loop
vertex -49.501701928934 -34.9525063912483 0.0
vertex -47.2832503912739 -14.3295506270159 0.0
vertex -48.9948748479478 -31.2013310613783 0.0
endloop
endfacet
facet normal 0.0 0.0 -1.0
outer loop
vertex -48.9948748479478 -31.2013310613783 0.0
vertex -47.2832503912739 -14.3295506270159 0.0
vertex -47.5344418640714 -27.7091504324513 0.0
endloop
endfacet
facet normal 0.0 0.0 -1.0
outer loop
vertex -47.5344418640714 -27.7091504324513 0.0
vertex -47.2832503912739 -14.3295506270159 0.0
vertex -45.2199290716764 -24.7139508432275 0.0
endloop
endfacet
facet normal 0.0 0.0 -1.0
outer loop
vertex -45.2199290716764 -24.7139508432275 0.0
vertex -47.2832503912739 -14.3295506270159 0.0
vertex -47.1952086851046 -14.3038157346055 0.0
endloop
endfacet
facet normal 0.0 0.0 -1.0
outer loop
vertex -45.2199290716764 -24.7139508432275 0.0
vertex -47.1952086851046 -14.3038157346055 0.0
vertex -43.6500236924827 -13.2675460127895 0.0
endloop
endfacet
facet normal 0.0 0.0 -1.0
outer loop
vertex -45.2199290716764 -24.7139508432275 0.0
vertex -43.6500236924827 -13.2675460127895 0.0
vertex -43.4437599703189 -23.3606141003881 0.0
endloop
endfacet
facet normal 0.0 0.0 -1.0
outer loop
vertex -43.4437599703189 -23.3606141003881 0.0
vertex -43.6500236924827 -13.2675460127895 0.0
vertex -40.415463211506 -11.301380063448 0.0
endloop
endfacet
facet normal 0.0 0.0 -1.0
outer loop
vertex -43.4437599703189 -23.3606141003881 0.0
vertex -40.415463211506 -11.301380063448 0.0
vertex -42.2090666926512 -22.419850195911 0.0
endloop
endfacet
facet normal 0.0 0.0 -1.0
outer loop
vertex -42.2090666926512 -22.419850195911 0.0
vertex -40.415463211506 -11.301380063448 0.0
vertex -38.7070400224412 -20.983187658436 0.0
endloop
endfacet
facet normal 0.0 0.0 -1.0
outer loop
vertex -38.7070400224412 -20.983187658436 0.0
vertex -40.415463211506 -11.301380063448 0.0
vertex -37.7999988997582 -8.56504373919603 0.0
endloop
endfacet
facet normal 0.0 0.0 -1.0
outer loop
vertex -38.7070400224412 -20.983187658436 0.0
vertex -37.7999988997582 -8.56504373919603 0.0
vertex -34.9525063912483 -20.5018694085342 0.0
endloop
endfacet
facet normal 0.0 0.0 -1.0
outer loop
vertex -34.9525063912483 -20.5018694085342 0.0
vertex -37.7999988997582 -8.56504373919603 0.0
vertex -35.9818703278259 -5.24501383852192 0.0
endloop
endfacet
facet normal 0.0 0.0 -1.0
outer loop
vertex -34.9525063912483 -20.5018694085342 0.0
vertex -35.9818703278259 -5.24501383852192 0.0
vertex -35.0849799532867 -1.56754491254774 0.0
endloop
endfacet
facet normal 0.0 0.0 -1.0
outer loop
vertex -93.1173331571764 197.518618407901 0.0
vertex -87.4148145657227 147.871366256111 0.0
vertex -87.5 147.224318643355 0.0
endloop
endfacet
facet normal 0.0 0.0 -1.0
outer loop
vertex -87.4148145657227 147.871366256111 0.0
vertex -93.1173331571764 197.518618407901 0.0
vertex -75.0 199.903810567666 0.0
endloop
endfacet
facet normal 0.0 0.0 -1.0
outer loop
vertex -87.4148145657227 147.871366256111 0.0
vertex -75.0 199.903810567666 0.0
vertex -87.1650635094611 148.474318643355 0.0
endloop
endfacet
facet normal 0.0 0.0 -1.0
outer loop
vertex -87.1650635094611 148.474318643355 0.0
vertex -75.0 199.903810567666 0.0
vertex -86.7677669529664 148.992085596321 0.0
endloop
endfacet
facet normal 0.0 0.0 -1.0
outer loop
vertex -86.7677669529664 148.992085596321 0.0
vertex -75.0 199.903810567666 0.0
vertex -86.25 149.389382152816 0.0
endloop
endfacet
facet normal 0.0 0.0 -1.0
outer loop
vertex -86.25 149.389382152816 0.0
vertex -75.0 199.903810567666 0.0
vertex -85.6470476127563 149.639133209077 0.0
endloop
endfacet
facet normal 0.0 0.0 -1.0
outer loop
vertex -85.6470476127563 149.639133209077 0.0
vertex -75.0 199.903810567666 0.0
vertex -85.0 149.724318643355 0.0
endloop
endfacet
facet normal 0.0 0.0 -1.0
outer loop
vertex -85.0 149.724318643355 0.0
vertex -75.0 199.903810567666 0.0
vertex -84.3529523872437 149.639133209077 0.0
endloop
endfacet
facet normal 0.0 0.0 -1.0
outer loop
vertex -84.3529523872437 149.639133209077 0.0
vertex -75.0 199.903810567666 0.0
vertex -83.75 149.389382152816 0.0
endloop
endfacet
facet normal 0.0 0.0 -1.0
outer loop
vertex -83.75 149.389382152816 0.0
vertex -75.0 199.903810567666 0.0
vertex -83.2322330470336 148.992085596321 0.0
endloop
endfacet
facet normal 0.0 0.0 -1.0
outer loop
vertex -83.2322330470336 148.992085596321 0.0
vertex -75.0 199.903810567666 0.0
vertex -82.8349364905389 148.474318643355 0.0
endloop
endfacet
facet normal 0.0 0.0 -1.0
outer loop
vertex -82.8349364905389 148.474318643355 0.0
vertex -75.0 199.903810567666 0.0
vertex -82.5851854342773 147.871366256111 0.0
endloop
endfacet
facet normal 0.0 0.0 -1.0
outer loop
vertex -82.5851854342773 147.871366256111 0.0
vertex -75.0 199.903810567666 0.0
vertex -82.5 147.224318643355 0.0
endloop
endfacet
facet normal 0.0 0.0 -1.0
outer loop
vertex -82.5 147.224318643355 0.0
vertex -75.0 199.903810567666 0.0
vertex -82.5 112.583302491977 0.0
endloop
endfacet
facet normal 0.0 0.0 -1.0
outer loop
vertex -82.5 112.583302491977 0.0
vertex -75.0 199.903810567666 0.0
vertex -77.5 129.903810567666 0.0
endloop
endfacet
facet normal 0.0 0.0 -1.0
outer loop
vertex -77.5 129.903810567666 0.0
vertex -75.0 199.903810567666 0.0
vertex -77.4148145657227 130.550858180422 0.0
endloop
endfacet
facet normal 0.0 0.0 -1.0
outer loop
vertex -77.4148145657227 130.550858180422 0.0
vertex -75.0 199.903810567666 0.0
vertex -77.1650635094611 131.153810567666 0.0
endloop
endfacet
facet normal 0.0 0.0 -1.0
outer loop
vertex -77.1650635094611 131.153810567666 0.0
vertex -75.0 199.903810567666 0.0
vertex -76.7677669529664 131.671577520632 0.0
endloop
endfacet
facet normal 0.0 0.0 -1.0
outer loop
vertex -76.7677669529664 131.671577520632 0.0
vertex -75.0 199.903810567666 0.0
vertex -76.25 132.068874077127 0.0
endloop
endfacet
facet normal 0.0 0.0 -1.0
outer loop
vertex -76.25 132.068874077127 0.0
vertex -75.0 199.903810567666 0.0
vertex -75.6470476127563 132.318625133388 0.0
endloop
endfacet
facet normal 0.0 0.0 -1.0
outer loop
vertex -75.6470476127563 132.318625133388 0.0
vertex -75.0 199.903810567666 0.0
vertex -75.0 132.403810567666 0.0
endloop
endfacet
facet normal 0.0 0.0 -1.0
outer loop
vertex -75.0 132.403810567666 0.0
vertex -75.0 199.903810567666 0.0
vertex -74.3529523872437 132.318625133388 0.0
endloop
endfacet
facet normal 0.0 0.0 -1.0
outer loop
vertex -74.3529523872437 132.318625133388 0.0
vertex -75.0 199.903810567666 0.0
vertex -56.8826668428235 197.518618407901 0.0
endloop
endfacet
facet normal 0.0 0.0 -1.0
outer loop
vertex -74.3529523872437 132.318625133388 0.0
vertex -56.8826668428235 197.518618407901 0.0
vertex -73.75 132.068874077127 0.0
endloop
endfacet
facet normal 0.0 0.0 -1.0
outer loop
vertex -73.75 132.068874077127 0.0
vertex -56.8826668428235 197.518618407901 0.0
vertex -73.2322330470336 131.671577520632 0.0
endloop
endfacet
facet normal 0.0 0.0 -1.0
outer loop
vertex -73.2322330470336 131.671577520632 0.0
vertex -56.8826668428235 197.518618407901 0.0
vertex -72.8349364905389 131.153810567666 0.0
endloop
endfacet
facet normal 0.0 0.0 -1.0
outer loop
vertex -72.8349364905389 131.153810567666 0.0
vertex -56.8826668428235 197.518618407901 0.0
vertex -72.5851854342773 130.550858180422 0.0
endloop
endfacet
facet normal 0.0 0.0 -1.0
outer loop
vertex -72.5851854342773 130.550858180422 0.0
vertex -56.8826668428235 197.518618407901 0.0
vertex -72.5 129.903810567666 0.0
endloop
endfacet
facet normal 0.0 0.0 -1.0
outer loop
vertex -72.5 129.903810567666 0.0
vertex -56.8826668428235 197.518618407901 0.0
vertex -57.5 129.903810567666 0.0
endloop
endfacet
facet normal 0.0 0.0 -1.0
outer loop
vertex -57.5 129.903810567666 0.0
vertex -56.8826668428235 197.518618407901 0.0
vertex -57.4148145657227 130.550858180422 0.0
endloop
endfacet
facet normal 0.0 0.0 -1.0
outer loop
vertex -57.4148145657227 130.550858180422 0.0
vertex -56.8826668428235 197.518618407901 0.0
vertex -57.1650635094611 131.153810567666 0.0
endloop
endfacet
facet normal 0.0 0.0 -1.0
outer loop
vertex -57.1650635094611 131.153810567666 0.0
vertex -56.8826668428235 197.518618407901 0.0
vertex -56.7677669529664 131.671577520632 0.0
endloop
endfacet
facet normal 0.0 0.0 -1.0
outer loop
vertex -56.7677669529664 131.671577520632 0.0
vertex -56.8826668428235 197.518618407901 0.0
vertex -40.0 190.525588832576 0.0
endloop
endfacet
facet normal 0.0 0.0 -1.0
outer loop
vertex -56.7677669529664 131.671577520632 0.0
vertex -40.0 190.525588832576 0.0
vertex -56.25 132.068874077127 0.0
endloop
endfacet
facet normal 0.0 0.0 -1.0
outer loop
vertex -56.25 132.068874077127 0.0
vertex -40.0 190.525588832576 0.0
vertex -55.6470476127563 132.318625133388 0.0
endloop
endfacet
facet normal 0.0 0.0 -1.0
outer loop
vertex -55.6470476127563 132.318625133388 0.0
vertex -40.0 190.525588832576 0.0
vertex -55.0 132.403810567666 0.0
endloop
endfacet
facet normal 0.0 0.0 -1.0
outer loop
vertex -55.0 132.403810567666 0.0
vertex -40.0 190.525588832576 0.0
vertex -54.3529523872437 132.318625133388 0.0
endloop
endfacet
facet normal 0.0 0.0 -1.0
outer loop
vertex -54.3529523872437 132.318625133388 0.0
vertex -40.0 190.525588832576 0.0
vertex -53.75 132.068874077127 0.0
endloop
endfacet
facet normal 0.0 0.0 -1.0
outer loop
vertex -53.75 132.068874077127 0.0
vertex -40.0 190.525588832576 0.0
vertex -53.2322330470336 131.671577520632 0.0
endloop
endfacet
facet normal 0.0 0.0 -1.0
outer loop
vertex -53.2322330470336 131.671577520632 0.0
vertex -40.0 190.525588832576 0.0
vertex -52.8349364905389 131.153810567666 0.0
endloop
endfacet
facet normal 0.0 0.0 -1.0
outer loop
vertex -52.8349364905389 131.153810567666 0.0
vertex -40.0 190.525588832576 0.0
vertex -52.5851854342773 130.550858180422 0.0
endloop
endfacet
facet normal 0.0 0.0 -1.0
outer loop
vertex -52.5851854342773 130.550858180422 0.0
vertex -40.0 190.525588832576 0.0
vertex -52.5 129.903810567666 0.0
endloop
endfacet
facet normal 0.0 0.0 -1.0
outer loop
vertex -52.5 129.903810567666 0.0
vertex -40.0 190.525588832576 0.0
vertex -40.0 69.2820323027551 0.0
endloop
endfacet
facet normal 0.0 0.0 -1.0
outer loop
vertex -40.0 69.2820323027551 0.0
vertex -40.0 190.525588832576 0.0
vertex -25.5025253169417 80.4063358846074 0.0
endloop
endfacet
facet normal 0.0 0.0 -1.0
outer loop
vertex -25.5025253169417 80.4063358846074 0.0
vertex -40.0 190.525588832576 0.0
vertex -25.5025253169417 179.401285250724 0.0
endloop
endfacet
facet normal 0.0 0.0 -1.0
outer loop
vertex -25.5025253169417 80.4063358846074 0.0
vertex -25.5025253169417 179.401285250724 0.0
vertex -14.3782217350893 94.9038105676657 0.0
endloop
endfacet
facet normal 0.0 0.0 -1.0
outer loop
vertex -14.3782217350893 94.9038105676657 0.0
vertex -25.5025253169417 179.401285250724 0.0
vertex -14.3782217350893 164.903810567666 0.0
endloop
endfacet
facet normal 0.0 0.0 -1.0
outer loop
vertex -14.3782217350893 94.9038105676657 0.0
vertex -14.3782217350893 164.903810567666 0.0
vertex -7.38519215976521 148.021143724842 0.0
endloop
endfacet
facet normal 0.0 0.0 -1.0
outer loop
vertex -14.3782217350893 94.9038105676657 0.0
vertex -7.38519215976521 148.021143724842 0.0
vertex -7.38519215976521 111.786477410489 0.0
endloop
endfacet
facet normal 0.0 0.0 -1.0
outer loop
vertex -7.38519215976521 111.786477410489 0.0
vertex -7.38519215976521 148.021143724842 0.0
vertex -4.99999999999999 129.903810567666 0.0
endloop
endfacet
facet normal 0.0 0.0 -1.0
outer loop
vertex -142.614807840235 148.021143724842 0.0
vertex -142.614807840235 111.786477410489 0.0
vertex -145.0 129.903810567666 0.0
endloop
endfacet
facet normal 0.0 0.0 -1.0
outer loop
vertex -142.614807840235 111.786477410489 0.0
vertex -142.614807840235 148.021143724842 0.0
vertex -135.621778264911 94.9038105676658 0.0
endloop
endfacet
facet normal 0.0 0.0 -1.0
outer loop
vertex -135.621778264911 94.9038105676658 0.0
vertex -142.614807840235 148.021143724842 0.0
vertex -135.621778264911 164.903810567666 0.0
endloop
endfacet
facet normal 0.0 0.0 -1.0
outer loop
vertex -135.621778264911 94.9038105676658 0.0
vertex -135.621778264911 164.903810567666 0.0
vertex -124.497474683058 80.4063358846075 0.0
endloop
endfacet
facet normal 0.0 0.0 -1.0
outer loop
vertex -124.497474683058 80.4063358846075 0.0
vertex -135.621778264911 164.903810567666 0.0
vertex -124.497474683058 179.401285250724 0.0
endloop
endfacet
facet normal 0.0 0.0 -1.0
outer loop
vertex -124.497474683058 80.4063358846075 0.0
vertex -124.497474683058 179.401285250724 0.0
vertex -110.0 69.2820323027551 0.0
endloop
endfacet
facet normal 0.0 0.0 -1.0
outer loop
vertex -110.0 69.2820323027551 0.0
vertex -124.497474683058 179.401285250724 0.0
vertex -110.0 190.525588832576 0.0
endloop
endfacet
facet normal 0.0 0.0 -1.0
outer loop
vertex -110.0 69.2820323027551 0.0
vertex -110.0 190.525588832576 0.0
vertex -93.1173331571765 62.289002727431 0.0
endloop
endfacet
facet normal 0.0 0.0 -1.0
outer loop
vertex -93.1173331571765 62.289002727431 0.0
vertex -110.0 190.525588832576 0.0
vertex -93.1173331571764 197.518618407901 0.0
endloop
endfacet
facet normal 0.0 0.0 -1.0
outer loop
vertex -93.1173331571765 62.289002727431 0.0
vertex -93.1173331571764 197.518618407901 0.0
vertex -87.5 112.583302491977 0.0
endloop
endfacet
facet normal 0.0 0.0 -1.0
outer loop
vertex -93.1173331571765 62.289002727431 0.0
vertex -87.5 112.583302491977 0.0
vertex -87.4148145657227 111.936254879221 0.0
endloop
endfacet
facet normal 0.0 0.0 -1.0
outer loop
vertex -93.1173331571765 62.289002727431 0.0
vertex -87.4148145657227 111.936254879221 0.0
vertex -75.0 59.9038105676658 0.0
endloop
endfacet
facet normal 0.0 0.0 -1.0
outer loop
vertex -87.5 112.583302491977 0.0
vertex -93.1173331571764 197.518618407901 0.0
vertex -87.5 147.224318643355 0.0
endloop
endfacet
facet normal 0.0 0.0 -1.0
outer loop
vertex -75.0 59.9038105676658 0.0
vertex -87.4148145657227 111.936254879221 0.0
vertex -87.1650635094611 111.333302491977 0.0
endloop
endfacet
facet normal 0.0 0.0 -1.0
outer loop
vertex -75.0 59.9038105676658 0.0
vertex -87.1650635094611 111.333302491977 0.0
vertex -86.7677669529664 110.815535539011 0.0
endloop
endfacet
facet normal 0.0 0.0 -1.0
outer loop
vertex -75.0 59.9038105676658 0.0
vertex -86.7677669529664 110.815535539011 0.0
vertex -86.25 110.418238982516 0.0
endloop
endfacet
facet normal 0.0 0.0 -1.0
outer loop
vertex -75.0 59.9038105676658 0.0
vertex -86.25 110.418238982516 0.0
vertex -85.6470476127563 110.168487926254 0.0
endloop
endfacet
facet normal 0.0 0.0 -1.0
outer loop
vertex -75.0 59.9038105676658 0.0
vertex -85.6470476127563 110.168487926254 0.0
vertex -85.0 110.083302491977 0.0
endloop
endfacet
facet normal 0.0 0.0 -1.0
outer loop
vertex -75.0 59.9038105676658 0.0
vertex -85.0 110.083302491977 0.0
vertex -84.3529523872437 110.168487926254 0.0
endloop
endfacet
facet normal 0.0 0.0 -1.0
outer loop
vertex -75.0 59.9038105676658 0.0
vertex -84.3529523872437 110.168487926254 0.0
vertex -83.75 110.418238982516 0.0
endloop
endfacet
facet normal 0.0 0.0 -1.0
outer loop
vertex -75.0 59.9038105676658 0.0
vertex -83.75 110.418238982516 0.0
vertex -83.2322330470336 110.815535539011 0.0
endloop
endfacet
facet normal 0.0 0.0 -1.0
outer loop
vertex -75.0 59.9038105676658 0.0
vertex -83.2322330470336 110.815535539011 0.0
vertex -82.8349364905389 111.333302491977 0.0
endloop
endfacet
facet normal 0.0 0.0 -1.0
outer loop
vertex -75.0 59.9038105676658 0.0
vertex -82.8349364905389 111.333302491977 0.0
vertex -82.5851854342773 111.936254879221 0.0
endloop
endfacet
facet normal 0.0 0.0 -1.0
outer loop
vertex -75.0 59.9038105676658 0.0
vertex -82.5851854342773 111.936254879221 0.0
vertex -82.5 112.583302491977 0.0
endloop
endfacet
facet normal 0.0 0.0 -1.0
outer loop
vertex -75.0 59.9038105676658 0.0
vertex -82.5 112.583302491977 0.0
vertex -77.5 129.903810567666 0.0
endloop
endfacet
facet normal 0.0 0.0 -1.0
outer loop
vertex -75.0 59.9038105676658 0.0
vertex -77.5 129.903810567666 0.0
vertex -77.4148145657227 129.256762954909 0.0
endloop
endfacet
facet normal 0.0 0.0 -1.0
outer loop
vertex -75.0 59.9038105676658 0.0
vertex -77.4148145657227 129.256762954909 0.0
vertex -77.1650635094611 128.653810567666 0.0
endloop
endfacet
facet normal 0.0 0.0 -1.0
outer loop
vertex -75.0 59.9038105676658 0.0
vertex -77.1650635094611 128.653810567666 0.0
vertex -76.7677669529664 128.136043614699 0.0
endloop
endfacet
facet normal 0.0 0.0 -1.0
outer loop
vertex -75.0 59.9038105676658 0.0
vertex -76.7677669529664 128.136043614699 0.0
vertex -76.25 127.738747058205 0.0
endloop
endfacet
facet normal 0.0 0.0 -1.0
outer loop
vertex -75.0 59.9038105676658 0.0
vertex -76.25 127.738747058205 0.0
vertex -75.6470476127563 127.488996001943 0.0
endloop
endfacet
facet normal 0.0 0.0 -1.0
outer loop
vertex -75.0 59.9038105676658 0.0
vertex -75.6470476127563 127.488996001943 0.0
vertex -75.0 127.403810567666 0.0
endloop
endfacet
facet normal 0.0 0.0 -1.0
outer loop
vertex -75.0 59.9038105676658 0.0
vertex -75.0 127.403810567666 0.0
vertex -56.8826668428236 62.289002727431 0.0
endloop
endfacet
facet normal 0.0 0.0 -1.0
outer loop
vertex -56.8826668428236 62.289002727431 0.0
vertex -75.0 127.403810567666 0.0
vertex -74.3529523872437 127.488996001943 0.0
endloop
endfacet
facet normal 0.0 0.0 -1.0
outer loop
vertex -56.8826668428236 62.289002727431 0.0
vertex -74.3529523872437 127.488996001943 0.0
vertex -73.75 127.738747058205 0.0
endloop
endfacet
facet normal 0.0 0.0 -1.0
outer loop
vertex -56.8826668428236 62.289002727431 0.0
vertex -73.75 127.738747058205 0.0
vertex -73.2322330470336 128.136043614699 0.0
endloop
endfacet
facet normal 0.0 0.0 -1.0
outer loop
vertex -56.8826668428236 62.289002727431 0.0
vertex -73.2322330470336 128.136043614699 0.0
vertex -72.8349364905389 128.653810567666 0.0
endloop
endfacet
facet normal 0.0 0.0 -1.0
outer loop
vertex -56.8826668428236 62.289002727431 0.0
vertex -72.8349364905389 128.653810567666 0.0
vertex -72.5851854342773 129.256762954909 0.0
endloop
endfacet
facet normal 0.0 0.0 -1.0
outer loop
vertex -56.8826668428236 62.289002727431 0.0
vertex -72.5851854342773 129.256762954909 0.0
vertex -72.5 129.903810567666 0.0
endloop
endfacet
facet normal 0.0 0.0 -1.0
outer loop
vertex -56.8826668428236 62.289002727431 0.0
vertex -72.5 129.903810567666 0.0
vertex -57.5 129.903810567666 0.0
endloop
endfacet
facet normal 0.0 0.0 -1.0
outer loop
vertex -56.8826668428236 62.289002727431 0.0
vertex -57.5 129.903810567666 0.0
vertex -57.4148145657227 129.25676295491 0.0
endloop
endfacet
facet normal 0.0 0.0 -1.0
outer loop
vertex -56.8826668428236 62.289002727431 0.0
vertex -57.4148145657227 129.25676295491 0.0
vertex -57.1650635094611 128.653810567666 0.0
endloop
endfacet
facet normal 0.0 0.0 -1.0
outer loop
vertex -56.8826668428236 62.289002727431 0.0
vertex -57.1650635094611 128.653810567666 0.0
vertex -56.7677669529664 128.136043614699 0.0
endloop
endfacet
facet normal 0.0 0.0 -1.0
outer loop
vertex -56.8826668428236 62.289002727431 0.0
vertex -56.7677669529664 128.136043614699 0.0
vertex -40.0 69.2820323027551 0.0
endloop
endfacet
facet normal 0.0 0.0 -1.0
outer loop
vertex -40.0 69.2820323027551 0.0
vertex -56.7677669529664 128.136043614699 0.0
vertex -56.25 127.738747058205 0.0
endloop
endfacet
facet normal 0.0 0.0 -1.0
outer loop
vertex -40.0 69.2820323027551 0.0
vertex -56.25 127.738747058205 0.0
vertex -55.6470476127563 127.488996001943 0.0
endloop
endfacet
facet normal 0.0 0.0 -1.0
outer loop
vertex -40.0 69.2820323027551 0.0
vertex -55.6470476127563 127.488996001943 0.0
vertex -55.0 127.403810567666 0.0
endloop
endfacet
facet normal 0.0 0.0 -1.0
outer loop
vertex -40.0 69.2820323027551 0.0
vertex -55.0 127.403810567666 0.0
vertex -54.3529523872437 127.488996001943 0.0
endloop
endfacet
facet normal 0.0 0.0 -1.0
outer loop
vertex -40.0 69.2820323027551 0.0
vertex -54.3529523872437 127.488996001943 0.0
vertex -53.75 127.738747058205 0.0
endloop
endfacet
facet normal 0.0 0.0 -1.0
outer loop
vertex -40.0 69.2820323027551 0.0
vertex -53.75 127.738747058205 0.0
vertex -53.2322330470336 128.136043614699 0.0
endloop
endfacet
facet normal 0.0 0.0 -1.0
outer loop
vertex -40.0 69.2820323027551 0.0
vertex -53.2322330470336 128.136043614699 0.0
vertex -52.8349364905389 128.653810567666 0.0
endloop
endfacet
facet normal 0.0 0.0 -1.0
outer loop
vertex -40.0 69.2820323027551 0.0
vertex -52.8349364905389 128.653810567666 0.0
vertex -52.5851854342773 129.256762954909 0.0
endloop
endfacet
facet normal 0.0 0.0 -1.0
outer loop
vertex -40.0 69.2820323027551 0.0
vertex -52.5851854342773 129.256762954909 0.0
vertex -52.5 129.903810567666 0.0
endloop
endfacet
facet normal 0.0 0.0 -1.0
outer loop
vertex -87.4148145657227 146.577271030598 0.0
vertex -87.5 112.583302491977 0.0
vertex -87.5 147.224318643355 0.0
endloop
endfacet
facet normal 0.0 0.0 -1.0
outer loop
vertex -87.5 112.583302491977 0.0
vertex -87.4148145657227 146.577271030598 0.0
vertex -87.4148145657227 113.230350104733 0.0
endloop
endfacet
facet normal 0.0 0.0 -1.0
outer loop
vertex -87.4148145657227 113.230350104733 0.0
vertex -87.4148145657227 146.577271030598 0.0
vertex -87.1650635094611 145.974318643355 0.0
endloop
endfacet
facet normal 0.0 0.0 -1.0
outer loop
vertex -87.4148145657227 113.230350104733 0.0
vertex -87.1650635094611 145.974318643355 0.0
vertex -87.1650635094611 113.833302491977 0.0
endloop
endfacet
facet normal 0.0 0.0 -1.0
outer loop
vertex -87.1650635094611 113.833302491977 0.0
vertex -87.1650635094611 145.974318643355 0.0
vertex -86.7677669529664 145.456551690388 0.0
endloop
endfacet
facet normal 0.0 0.0 -1.0
outer loop
vertex -87.1650635094611 113.833302491977 0.0
vertex -86.7677669529664 145.456551690388 0.0
vertex -86.7677669529664 114.351069444943 0.0
endloop
endfacet
facet normal 0.0 0.0 -1.0
outer loop
vertex -86.7677669529664 114.351069444943 0.0
vertex -86.7677669529664 145.456551690388 0.0
vertex -86.25 145.059255133893 0.0
endloop
endfacet
facet normal 0.0 0.0 -1.0
outer loop
vertex -86.7677669529664 114.351069444943 0.0
vertex -86.25 145.059255133893 0.0
vertex -86.25 114.748366001438 0.0
endloop
endfacet
facet normal 0.0 0.0 -1.0
outer loop
vertex -86.25 114.748366001438 0.0
vertex -86.25 145.059255133893 0.0
vertex -85.6470476127563 144.809504077632 0.0
endloop
endfacet
facet normal 0.0 0.0 -1.0
outer loop
vertex -86.25 114.748366001438 0.0
vertex -85.6470476127563 144.809504077632 0.0
vertex -85.6470476127563 114.9981170577 0.0
endloop
endfacet
facet normal 0.0 0.0 -1.0
outer loop
vertex -85.6470476127563 114.9981170577 0.0
vertex -85.6470476127563 144.809504077632 0.0
vertex -85.0 144.724318643355 0.0
endloop
endfacet
facet normal 0.0 0.0 -1.0
outer loop
vertex -85.6470476127563 114.9981170577 0.0
vertex -85.0 144.724318643355 0.0
vertex -85.0 115.083302491977 0.0
endloop
endfacet
facet normal 0.0 0.0 -1.0
outer loop
vertex -85.0 115.083302491977 0.0
vertex -85.0 144.724318643355 0.0
vertex -84.3529523872437 144.809504077632 0.0
endloop
endfacet
facet normal 0.0 0.0 -1.0
outer loop
vertex -85.0 115.083302491977 0.0
vertex -84.3529523872437 144.809504077632 0.0
vertex -84.3529523872437 114.9981170577 0.0
endloop
endfacet
facet normal 0.0 0.0 -1.0
outer loop
vertex -84.3529523872437 114.9981170577 0.0
vertex -84.3529523872437 144.809504077632 0.0
vertex -83.75 145.059255133893 0.0
endloop
endfacet
facet normal 0.0 0.0 -1.0
outer loop
vertex -84.3529523872437 114.9981170577 0.0
vertex -83.75 145.059255133893 0.0
vertex -83.75 114.748366001438 0.0
endloop
endfacet
facet normal 0.0 0.0 -1.0
outer loop
vertex -83.75 114.748366001438 0.0
vertex -83.75 145.059255133893 0.0
vertex -83.2322330470336 145.456551690388 0.0
endloop
endfacet
facet normal 0.0 0.0 -1.0
outer loop
vertex -83.75 114.748366001438 0.0
vertex -83.2322330470336 145.456551690388 0.0
vertex -83.2322330470336 114.351069444943 0.0
endloop
endfacet
facet normal 0.0 0.0 -1.0
outer loop
vertex -83.2322330470336 114.351069444943 0.0
vertex -83.2322330470336 145.456551690388 0.0
vertex -82.8349364905389 145.974318643355 0.0
endloop
endfacet
facet normal 0.0 0.0 -1.0
outer loop
vertex -83.2322330470336 114.351069444943 0.0
vertex -82.8349364905389 145.974318643355 0.0
vertex -82.8349364905389 113.833302491977 0.0
endloop
endfacet
facet normal 0.0 0.0 -1.0
outer loop
vertex -82.8349364905389 113.833302491977 0.0
vertex -82.8349364905389 145.974318643355 0.0
vertex -82.5851854342773 146.577271030598 0.0
endloop
endfacet
facet normal 0.0 0.0 -1.0
outer loop
vertex -82.8349364905389 113.833302491977 0.0
vertex -82.5851854342773 146.577271030598 0.0
vertex -82.5851854342773 113.230350104733 0.0
endloop
endfacet
facet normal 0.0 0.0 -1.0
outer loop
vertex -82.5851854342773 113.230350104733 0.0
vertex -82.5851854342773 146.577271030598 0.0
vertex -82.5 147.224318643355 0.0
endloop
endfacet
facet normal 0.0 0.0 -1.0
outer loop
vertex -82.5851854342773 113.230350104733 0.0
vertex -82.5 147.224318643355 0.0
vertex -82.5 112.583302491977 0.0
endloop
endfacet
endsolid carousel_v1
